<svg width="32" height="32" viewBox="0 0 32 32" fill="none" xmlns="http://www.w3.org/2000/svg">
<path d="M6.33333 27.1753V13.8759C6.33333 12.9578 5.61201 12.2136 4.72222 12.2136H3.11111C2.22132 12.2136 1.5 12.9579 1.5 13.876V27.1753C1.5 28.0934 2.22132 28.8377 3.11111 28.8377H4.72222C5.61201 28.8377 6.33333 28.0934 6.33333 27.1753Z" fill="white"/>
<path d="M6.33333 13.8759V27.1753L12.7669 30.2992C13.0391 30.4314 13.3378 30.5001 13.6404 30.5001H18.4167L22.8023 30.5001C23.5688 30.5001 24.2678 30.062 24.6021 29.3723L30.1871 17.8465C30.3894 17.4291 30.4403 16.9543 30.331 16.5035L29.2594 12.0802C29.042 11.183 28.2388 10.5511 27.3156 10.5511L23.6528 10.5511L17.6111 10.5511V3.29071C17.6111 2.63233 17.2873 2.00397 16.6675 1.78188C15.9371 1.52019 14.8587 1.32079 13.7071 1.75117C13.0904 1.98166 12.7921 2.63514 12.6867 3.28504C12.2251 6.13118 10.1469 9.60158 9.65853 10.3877C9.58948 10.4988 9.50969 10.5985 9.41863 10.6924L6.33333 13.8759Z" fill="white"/>
<path d="M6.33333 13.8759V27.1753M6.33333 13.8759L9.41863 10.6924C9.50969 10.5985 9.58948 10.4988 9.65853 10.3877C10.1469 9.60158 12.2251 6.13118 12.6867 3.28504C12.7921 2.63514 13.0904 1.98166 13.7071 1.75117C14.8587 1.32079 15.9371 1.52019 16.6675 1.78188C17.2873 2.00397 17.6111 2.63233 17.6111 3.29071V10.5511M6.33333 13.8759C6.33333 12.9578 5.61201 12.2136 4.72222 12.2136H3.11111C2.22132 12.2136 1.5 12.9579 1.5 13.876V27.1753C1.5 28.0934 2.22132 28.8377 3.11111 28.8377H4.72222C5.61201 28.8377 6.33333 28.0934 6.33333 27.1753M6.33333 27.1753L12.7669 30.2992C13.0391 30.4314 13.3378 30.5001 13.6404 30.5001H18.4167L22.8023 30.5001C23.5688 30.5001 24.2678 30.062 24.6021 29.3723L30.1871 17.8465C30.3894 17.4291 30.4403 16.9543 30.331 16.5035L29.2594 12.0802C29.042 11.183 28.2388 10.5511 27.3156 10.5511L23.6528 10.5511L17.6111 10.5511M17.6111 10.5511H16" stroke="black" stroke-width="3" stroke-linecap="round" stroke-linejoin="round"/>
</svg>
