<svg width="32" height="32" viewBox="0 0 32 32" fill="none" xmlns="http://www.w3.org/2000/svg">
<path fill-rule="evenodd" clip-rule="evenodd" d="M10.0294 10.0294H10.0447H10.0294Z" fill="white"/>
<path d="M1.5 7.44607C1.5 6.91564 1.71071 6.40693 2.08579 6.03186L6.03186 2.08579C6.40693 1.71071 6.91564 1.5 7.44607 1.5H12.6127C13.1432 1.5 13.6519 1.71071 14.027 2.08579L29.0858 17.1446C29.8668 17.9257 29.8668 19.192 29.0858 19.973L19.973 29.0858C19.192 29.8668 17.9257 29.8668 17.1446 29.0858L2.08579 14.027C1.71071 13.6519 1.5 13.1432 1.5 12.6127V7.44607Z" fill="white"/>
<path d="M10.0294 10.0294H10.0447M2.08579 14.027L17.1446 29.0858C17.9257 29.8668 19.192 29.8668 19.973 29.0858L29.0858 19.973C29.8668 19.192 29.8668 17.9257 29.0858 17.1446L14.027 2.08579C13.6519 1.71071 13.1432 1.5 12.6127 1.5H7.44607C6.91564 1.5 6.40693 1.71071 6.03186 2.08579L2.08579 6.03186C1.71071 6.40693 1.5 6.91564 1.5 7.44607V12.6127C1.5 13.1432 1.71071 13.6519 2.08579 14.027Z" stroke="black" stroke-width="3" stroke-linecap="round" stroke-linejoin="round"/>
</svg>
