<svg width="31" height="32" viewBox="0 0 31 32" fill="none" xmlns="http://www.w3.org/2000/svg">
<path d="M22.5616 30.5H24.4431C26.1823 30.5 27.5923 29.0901 27.5923 27.3508C27.5923 26.1465 26.9054 25.0476 25.8228 24.5199L24.0923 23.6765L27.5923 20.2647L28.4673 15.1471L29.0345 11.8295C29.23 10.6862 28.9196 9.51435 28.1838 8.61776L23.5425 2.96241C22.7827 2.03663 21.6481 1.5 20.4504 1.5H6.66225C4.62839 1.5 2.91832 3.02622 2.68798 5.04699L1.52567 15.2441C1.40805 16.276 1.69638 17.3132 2.32969 18.1363L5.39139 22.1156C6.14859 23.0998 7.3199 23.6765 8.56163 23.6765H15.3423L19.3914 28.9392C20.1486 29.9233 21.3199 30.5 22.5616 30.5Z" fill="white"/>
<path d="M9.21729 15.1471L15.3423 23.6765M15.3423 23.6765L19.3914 28.9392C20.1486 29.9233 21.3199 30.5 22.5616 30.5H24.4431C26.1823 30.5 27.5923 29.0901 27.5923 27.3508C27.5923 26.1465 26.9054 25.0476 25.8228 24.5199L24.0923 23.6765M15.3423 23.6765H8.56163C7.3199 23.6765 6.14859 23.0998 5.39139 22.1156L2.32969 18.1363C1.69638 17.3132 1.40805 16.276 1.52567 15.2441L2.68798 5.04699C2.91832 3.02622 4.62839 1.5 6.66225 1.5H20.4504C21.6481 1.5 22.7827 2.03663 23.5425 2.96241L28.1838 8.61776C28.9196 9.51435 29.23 10.6862 29.0345 11.8295L28.4673 15.1471M27.5923 20.2647L24.0923 23.6765M27.5923 20.2647L22.3423 11.7353M27.5923 20.2647L28.4673 15.1471M17.0923 13.4412L24.0923 23.6765M28.4673 15.1471L25.8423 10.0294" stroke="black" stroke-width="3" stroke-linecap="round" stroke-linejoin="round"/>
</svg>
