<svg width="32" height="32" viewBox="0 0 32 32" fill="none" xmlns="http://www.w3.org/2000/svg">
<path d="M1.5 15.6111V11.5556C1.5 10.451 2.39543 9.55556 3.5 9.55556H11.9722C9.74774 9.55556 7.94444 7.75226 7.94444 5.52778C7.94444 3.3033 9.74774 1.5 11.9722 1.5C14.1967 1.5 16 3.3033 16 5.52778C16 3.3033 17.8033 1.5 20.0278 1.5C22.2523 1.5 24.0556 3.3033 24.0556 5.52778C24.0556 7.75226 22.2523 9.55556 20.0278 9.55556H28.5C29.6046 9.55556 30.5 10.451 30.5 11.5556V15.6111C30.5 16.7157 29.6046 17.6111 28.5 17.6111H27.2778V28.5C27.2778 29.6046 26.3823 30.5 25.2778 30.5H16H6.72222C5.61765 30.5 4.72222 29.6046 4.72222 28.5V17.6111H3.5C2.39543 17.6111 1.5 16.7157 1.5 15.6111Z" fill="white"/>
<path d="M4.72222 17.6111H3.5C2.39543 17.6111 1.5 16.7157 1.5 15.6111V11.5556C1.5 10.451 2.39543 9.55556 3.5 9.55556H16M4.72222 17.6111V28.5C4.72222 29.6046 5.61765 30.5 6.72222 30.5H16M4.72222 17.6111H27.2778M27.2778 17.6111H28.5C29.6046 17.6111 30.5 16.7157 30.5 15.6111V11.5556C30.5 10.451 29.6046 9.55556 28.5 9.55556H16M27.2778 17.6111V28.5C27.2778 29.6046 26.3823 30.5 25.2778 30.5H16M16 30.5V9.55556M16 9.55556V5.52778M16 5.52778C16 3.3033 14.1967 1.5 11.9722 1.5C9.74774 1.5 7.94444 3.3033 7.94444 5.52778C7.94444 7.75226 9.74774 9.55556 11.9722 9.55556M16 5.52778C16 3.3033 17.8033 1.5 20.0278 1.5C22.2523 1.5 24.0556 3.3033 24.0556 5.52778C24.0556 7.75226 22.2523 9.55556 20.0278 9.55556" stroke="black" stroke-width="3" stroke-linecap="round" stroke-linejoin="round"/>
</svg>
