<svg width="26" height="32" viewBox="0 0 26 32" fill="none" xmlns="http://www.w3.org/2000/svg">
<path fill-rule="evenodd" clip-rule="evenodd" d="M24.5 12.7778C24.5 17.6596 17.4353 25.776 14.3803 29.0575C13.628 29.8656 12.372 29.8656 11.6197 29.0575C8.56472 25.776 1.5 17.6596 1.5 12.7778C1.5 6.54923 6.64873 1.5 13 1.5C19.3513 1.5 24.5 6.54923 24.5 12.7778ZM13 17.6111C15.722 17.6111 17.9286 15.4472 17.9286 12.7778C17.9286 10.1084 15.722 7.94444 13 7.94444C10.278 7.94444 8.07143 10.1084 8.07143 12.7778C8.07143 15.4472 10.278 17.6111 13 17.6111Z" fill="white" stroke="black" stroke-width="3" stroke-linecap="round" stroke-linejoin="round"/>
</svg>
