<svg width="32" height="32" viewBox="0 0 32 32" fill="none" xmlns="http://www.w3.org/2000/svg">
<path opacity="0.8" d="M30.5 16C30.5 10.8651 30.5 8.29771 29.4831 6.34426C28.6303 4.70597 27.294 3.36974 25.6557 2.5169C23.7023 1.5 21.1349 1.5 16 1.5C10.8651 1.5 8.29771 1.5 6.34426 2.5169C4.70597 3.36974 3.36974 4.70597 2.5169 6.34426C1.5 8.29771 1.5 10.8651 1.5 16C1.5 21.1349 1.5 23.7023 2.5169 25.6557C3.36974 27.294 4.70597 28.6303 6.34426 29.4831C8.29771 30.5 10.8651 30.5 16 30.5C21.1349 30.5 23.7023 30.5 25.6557 29.4831C27.294 28.6303 28.6303 27.294 29.4831 25.6557C30.5 23.7023 30.5 21.1349 30.5 16Z" fill="white" stroke="black" stroke-width="3"/>
<path d="M10.5625 12.375L21.4375 12.375" stroke="black" stroke-width="3" stroke-linecap="round" stroke-linejoin="round"/>
<path d="M10.5625 19.625H16" stroke="black" stroke-width="3" stroke-linecap="round" stroke-linejoin="round"/>
</svg>
