<svg width="30" height="30" viewBox="0 0 30 30" fill="none" xmlns="http://www.w3.org/2000/svg">
<path d="M22.4118 15.8235L29 9.23529V1H20.7647L14.1765 7.58824M22.4118 15.8235V22.4118L15.8235 27.3529L14.1765 20.7647M22.4118 15.8235L14.1765 20.7647M14.1765 20.7647L12.5294 22.4118H7.58824V17.4706L9.23529 15.8235M14.1765 20.7647L17.4706 12.5294L9.23529 15.8235M9.23529 15.8235L2.64706 14.1765L7.58824 7.58824H14.1765M9.23529 15.8235L14.1765 7.58824M22.4118 7.58824H22.4266M10.8824 27.3529L9.23529 29M4.29412 25.7059L2.64706 27.3529M2.64706 19.1176L1 20.7647" stroke="white" stroke-width="2" stroke-linecap="round" stroke-linejoin="round"/>
</svg>
