<svg width="27" height="26" viewBox="0 0 27 26" fill="none" xmlns="http://www.w3.org/2000/svg">
<path d="M5.16667 11.242V22.2484M5.16667 11.242L7.80348 8.63014C7.89723 8.53728 7.98052 8.43709 8.05198 8.32616C8.49176 7.64345 10.1517 4.96037 10.6064 2.67939C10.7378 2.02057 11.0484 1.3472 11.6912 1.15223C12.5362 0.89595 13.3249 1.00377 13.9076 1.17909C14.5509 1.37264 14.8889 2.01568 14.8889 2.68746V8.4905M5.16667 11.242C5.16667 10.4822 4.54484 9.8663 3.77778 9.8663H2.38889C1.62183 9.8663 1 10.4823 1 11.2421V22.2484C1 23.0083 1.62183 23.6242 2.38889 23.6242H3.77778C4.54484 23.6242 5.16667 23.0083 5.16667 22.2484M5.16667 22.2484L10.6677 24.8127C10.9323 24.9361 11.2207 25 11.5127 25H15.5833L19.2136 25C19.9684 25 20.6589 24.5751 20.9991 23.9012L25.6635 14.6603C25.8805 14.2304 25.9351 13.7366 25.8173 13.2697L24.9923 10.0011C24.7682 9.11287 23.9692 8.4905 23.0532 8.49049L20.0972 8.49047L14.8889 8.4905M14.8889 8.4905H13.5" stroke="white" stroke-width="2" stroke-linecap="round" stroke-linejoin="round"/>
</svg>
