<svg width="23" height="23" viewBox="0 0 23 23" fill="none" xmlns="http://www.w3.org/2000/svg">
<path d="M11.2 0.100403C13.6033 0.100403 15.4859 0.099718 16.9871 0.319153C18.4915 0.539064 19.6254 0.980979 20.5251 1.87384L20.5261 1.87482C21.4189 2.77451 21.8609 3.90519 22.0808 5.40802C22.3002 6.90754 22.2996 8.79007 22.2996 11.2C22.2996 13.6099 22.3002 15.4957 22.0808 16.9969C21.8609 18.5014 21.4184 19.632 20.5251 20.5252V20.5262C19.6255 21.419 18.4948 21.8609 16.9919 22.0809C15.4924 22.3003 13.6099 22.2996 11.2 22.2996C8.79004 22.2996 6.90423 22.3003 5.40308 22.0809C3.89857 21.8609 2.76801 21.4185 1.87476 20.5252H1.87378C0.980967 19.6255 0.539019 18.4948 0.319092 16.992C0.0996656 15.4925 0.100342 13.61 0.100342 11.2C0.100342 8.7901 0.099677 6.9043 0.319092 5.40314C0.53902 3.89863 0.981502 2.76807 1.87476 1.87482V1.87384C2.77445 0.981027 3.90513 0.539079 5.40796 0.319153C6.90748 0.0997269 8.79001 0.100403 11.2 0.100403ZM11.2 0.643372C8.82395 0.643372 6.99068 0.644073 5.54663 0.849426C4.10589 1.05437 3.06572 1.46171 2.26733 2.26642V2.2674C1.46208 3.07265 1.05428 4.1132 0.849365 5.55255C0.644069 6.99487 0.643311 8.82421 0.643311 11.2C0.643311 13.5758 0.644069 15.4052 0.849365 16.8475C1.05428 18.2868 1.46208 19.3274 2.26733 20.1326C3.07259 20.9379 4.11314 21.3457 5.55249 21.5506C6.99481 21.7559 8.82415 21.7567 11.2 21.7567C13.5757 21.7567 15.4051 21.7559 16.8474 21.5506C18.2868 21.3457 19.3273 20.9379 20.1326 20.1326C20.9378 19.3274 21.3456 18.2868 21.5505 16.8475C21.7558 15.4052 21.7566 13.5758 21.7566 11.2C21.7566 8.82421 21.7558 6.99487 21.5505 5.55255C21.3456 4.1132 20.9378 3.07265 20.1326 2.2674C19.3273 1.46214 18.2868 1.05435 16.8474 0.849426C15.4051 0.644131 13.5757 0.643372 11.2 0.643372ZM11.3826 3.7713C11.7526 4.20989 11.9871 4.76161 11.9871 5.36993C11.987 6.02869 11.938 6.68023 11.8884 7.32404C11.8388 7.96915 11.7888 8.60636 11.7888 9.24298C11.7888 10.6149 12.2195 12.0298 12.9724 13.4647L13.3728 13.3768C13.6901 13.3063 13.9294 13.0379 13.9294 12.7205C13.9294 12.5589 13.8536 12.3874 13.7263 12.2557C13.6003 12.1253 13.4311 12.0419 13.2527 12.0408L13.0642 12.0662L12.9363 12.0828L12.9519 11.9549L13.3347 8.80841V8.80743C13.5363 7.1955 14.4639 5.62822 15.8884 4.92267L16.033 4.85138V16.2977H13.4226C13.2075 17.3436 12.6485 18.285 11.8132 18.869L11.8142 18.8699C11.6243 19.0092 11.4778 19.1574 11.3679 19.3651L11.2605 19.5662L11.1853 19.3514C11.1156 19.1539 10.9616 18.9962 10.781 18.8543V18.8533C9.97627 18.2456 9.39223 17.3309 9.17554 16.284H6.56519V4.83673L6.70972 4.90997C8.12861 5.62618 9.15292 7.17585 9.27612 8.79474L9.65991 11.9549L9.67554 12.0828L9.54761 12.0662L9.35815 12.0408C8.9942 12.0433 8.68237 12.3782 8.68237 12.7205C8.68241 13.0255 8.922 13.3064 9.23804 13.3768L9.63745 13.4647C10.3908 12.0168 10.822 10.615 10.822 9.24298C10.822 8.60587 10.7794 7.96763 10.7332 7.32306C10.687 6.67968 10.6371 6.02921 10.6238 5.37189V5.36993C10.6238 4.76153 10.8592 4.20992 11.2292 3.7713L11.3054 3.68048L11.3826 3.7713ZM11.8025 17.5516C12.091 17.1716 12.3138 16.7498 12.4324 16.2977H11.8025V17.5516ZM10.1941 16.2977C10.3204 16.7505 10.5371 17.1719 10.822 17.5506V16.2977H10.1941ZM7.54468 15.3309H9.09351C9.10012 15.0045 9.14286 14.6882 9.21558 14.3817L8.95679 14.325L8.948 14.3231C8.41588 14.1501 7.98055 13.7462 7.81909 13.2166H7.54468V15.3309ZM12.4617 14.5789C12.1141 14.6561 11.8546 14.9606 11.8123 15.3172H12.5769C12.5684 15.0648 12.5284 14.8259 12.4617 14.5789ZM10.1628 14.5848C10.1033 14.8235 10.0585 15.0602 10.0486 15.3172H10.8123C10.7699 14.9645 10.5121 14.6709 10.1628 14.5848ZM14.8015 13.2039C14.6303 13.7308 14.2116 14.1493 13.6746 14.3104L13.6677 14.3123L13.406 14.3699C13.4697 14.6692 13.5209 14.9812 13.53 15.3045H15.0798V13.2039H14.8015ZM11.3191 12.1854C11.1357 12.7198 10.8921 13.228 10.6306 13.7166C10.8995 13.8105 11.1267 13.9917 11.3171 14.1893C11.5011 13.99 11.7288 13.8079 12.0066 13.7147C11.7459 13.2262 11.502 12.7124 11.3191 12.1854ZM15.0798 6.89435C14.7388 7.34696 14.4874 7.87458 14.3728 8.44904L14.3269 8.73907L14.03 11.2684C14.383 11.4905 14.6781 11.8239 14.8025 12.2234H15.0798V6.89435ZM7.53198 12.2234H7.80933C7.9337 11.8241 8.22807 11.4905 8.58081 11.2684L8.28491 8.74103L8.23511 8.45001C8.11508 7.87478 7.87028 7.34723 7.53198 6.89532V12.2234Z" fill="black" stroke="black" stroke-width="0.2"/>
</svg>
