<svg width="24" height="24" viewBox="0 0 24 24" fill="none" xmlns="http://www.w3.org/2000/svg">
<path d="M1.7575 2.74827L4.21288 0.292892C4.6034 -0.0976326 5.23657 -0.0976318 5.62709 0.292893L9.68656 4.35236C10.0771 4.74289 10.0771 5.37605 9.68656 5.76658L6.97328 8.47986C6.56428 8.88886 6.46288 9.51369 6.72156 10.031C8.21691 13.0217 10.6419 15.4468 13.6326 16.9421C14.15 17.2008 14.7748 17.0994 15.1838 16.6904L17.8971 13.9771C18.2876 13.5866 18.9208 13.5866 19.3113 13.9771L23.3708 18.0366C23.7613 18.4271 23.7613 19.0603 23.3708 19.4508L20.9154 21.9062C18.804 24.0175 15.4615 24.2551 13.0728 22.4635L8.91698 19.3467C7.17345 18.039 5.62463 16.4902 4.31698 14.7467L1.20014 10.5909C-0.591397 8.20219 -0.353848 4.85962 1.7575 2.74827Z" fill="white"/>
</svg>
