<svg width="24" height="24" viewBox="0 0 24 24" fill="none" xmlns="http://www.w3.org/2000/svg">
<path d="M17.3204 3.32038L16.7071 2.70711C16.3166 2.31658 15.6834 2.31658 15.2929 2.70711L12.7071 5.29289C12.3166 5.68342 12.3166 6.31658 12.7071 6.70711L14.4995 8.49952C14.7984 8.7984 14.8725 9.255 14.6835 9.63307C13.5907 11.8186 11.8186 13.5907 9.63307 14.6835C9.255 14.8725 8.7984 14.7984 8.49952 14.4995L6.70711 12.7071C6.31658 12.3166 5.68342 12.3166 5.29289 12.7071L2.70711 15.2929C2.31658 15.6834 2.31658 16.3166 2.70711 16.7071L3.32038 17.3204C5.43173 19.4317 8.7743 19.6693 11.163 17.8777L12.3714 16.9714C14.115 15.6638 15.6638 14.115 16.9714 12.3714L17.8777 11.163C19.6693 8.7743 19.4317 5.43173 17.3204 3.32038Z" fill="white"/>
</svg>
