<svg width="22" height="22" viewBox="0 0 22 22" fill="none" xmlns="http://www.w3.org/2000/svg">
<path d="M11 22C15.8141 22 18.4916 22 20.2458 20.2448C22 18.4895 22 15.8104 22 10.9934C22 6.17637 22 3.4973 20.2458 1.74205C18.4916 0 15.8141 0 11 0C6.18585 0 3.5084 0 1.7542 1.75525C6.415e-06 3.4973 0 6.17637 0 10.9934C0 15.8104 6.415e-06 18.4895 1.7542 20.2448C3.49521 22 6.17266 22 11 22Z" fill="black"/>
<path d="M15.1375 8.82901C14.3061 8.82901 13.6858 9.47568 13.6858 10.2675C13.6858 10.9142 14.1345 11.4157 14.7152 11.5609L13.5406 13.3689H14.636L15.639 11.6928H16.3913V13.3689H17.3151V8.82901H15.1375ZM15.2563 10.9142C14.8736 10.9142 14.6492 10.6239 14.6492 10.2807C14.6492 9.93759 14.8604 9.62086 15.2563 9.62086H16.3913V10.9142H15.2563Z" fill="white"/>
<path d="M10.0961 8.82901L9.79257 9.67364L11.0463 9.66045L10.3073 12.3791C10.0961 13.1709 10.9275 13.778 11.627 13.3029L13.2371 12.2207L12.762 11.5213L11.1651 12.6299L12.2473 8.82901H10.0961Z" fill="white"/>
<path d="M12.4584 7.66765C12.4584 7.98438 12.3133 8.23513 11.825 8.23513C11.3499 8.23513 11.1915 7.98438 11.1915 7.66765C11.1915 7.35091 11.3499 7.10016 11.825 7.10016C12.3133 7.10016 12.4584 7.35091 12.4584 7.66765Z" fill="white"/>
<path d="M8.57842 12.5243V7.77322H5.05473V10.3071C5.05473 11.5081 4.71159 12.2339 4.50043 12.5243H4.07812V14.5963H4.97554V13.3689H8.31447V14.5963H9.2119V12.5243H8.57842ZM5.93895 10.2543V8.61786H7.65461V12.5243H5.43744C5.6354 12.1943 5.93895 11.3497 5.93895 10.2543Z" fill="white"/>
</svg>
