<svg width="185" height="44" viewBox="0 0 185 44" fill="none" xmlns="http://www.w3.org/2000/svg">
<mask id="mask0_45_224" style="mask-type:luminance" maskUnits="userSpaceOnUse" x="0" y="0" width="185" height="44">
<path d="M0 44H184.585L184.586 0H0V44Z" fill="white"/>
</mask>
<g mask="url(#mask0_45_224)">
<path d="M56.1628 0.357422H67.6097L76.5529 31.837L81.5612 12.341H90.5041L95.6912 31.837L100.163 12.1622H111.789L102.309 40.0646H90.6832L86.0325 21.9998L81.2033 40.0646H69.7561L56.1628 0.357422Z" fill="#231D1D"/>
<path d="M131.285 12.1624C142.911 12.1624 148.813 17.1707 148.813 26.1136C148.813 35.2356 142.911 40.0648 131.285 40.0648H113.577V12.1624H131.285ZM124.309 32.7316H129.675C135.041 32.7316 137.366 30.9428 137.366 25.9347C137.366 20.9267 134.862 19.138 129.675 19.138H124.309V32.7316Z" fill="#231D1D"/>
<path d="M162.764 31.6586C162.943 33.0894 164.732 33.9838 167.593 33.9838C170.455 33.9838 171.886 33.2682 171.886 32.0162C171.886 30.7642 170.634 30.049 168.13 29.691L160.081 28.6178C153.463 27.7238 150.065 25.0406 150.065 20.2114C150.065 13.7726 155.252 11.2686 165.984 11.2686C177.252 11.2686 182.976 13.9514 183.333 20.2114H170.813C170.455 18.423 168.846 17.5286 165.447 17.5286C162.943 17.5286 161.512 18.2442 161.512 19.317C161.512 20.5694 162.943 20.927 165.626 21.2846L175.285 22.7154C181.366 23.6098 184.406 26.2926 184.406 30.943C184.406 37.919 178.325 40.9594 165.626 40.9594C155.073 40.9594 149.707 37.561 149.528 31.6586H162.764Z" fill="#231D1D"/>
<path d="M48.1139 34.5205C49.1871 34.3413 49.1871 32.9105 49.1871 32.9105V3.04052C49.1871 2.1465 48.6503 1.96769 48.4715 1.96769C48.4715 1.96769 46.3251 1.60971 44.8943 1.43091C45.0731 1.60971 45.2519 1.78852 45.2519 2.3253V32.7317C45.2519 32.7317 45.2519 34.3413 44.1787 34.3413L48.1139 34.5205Z" fill="#78B52F"/>
<path d="M27.366 36.4876C27.1872 36.8456 26.8292 37.0244 26.2928 37.0244H12.878C12.1628 37.0244 11.626 36.4876 11.626 35.7724V8.76402C11.626 8.0488 12.1628 7.51202 12.878 7.51202H26.8292L39.1708 2.50401V0H5.18718C2.504 0 0 2.68281 0 4.8292V44.1788H33.4472C37.9188 44.1788 38.992 41.6748 38.992 39.3496V35.2356L27.366 36.4876Z" fill="#1D9AD8"/>
<path d="M27.7237 8.76409L42.9269 2.50409C42.9269 2.50409 43.8213 2.32528 43.8213 3.39848V31.3009C43.8213 31.3009 43.8213 32.9105 42.7481 32.9105L27.7237 35.0569C27.7237 35.0569 27.0085 35.4145 27.0085 34.3413V9.65848C26.8293 9.65848 26.8293 9.12207 27.7237 8.76409Z" fill="#78B52F"/>
</g>
</svg>
