<svg width="41" height="44" viewBox="0 0 41 44" fill="none" xmlns="http://www.w3.org/2000/svg">
<path fill-rule="evenodd" clip-rule="evenodd" d="M20.1304 2.10864L38.1238 20.1021L20.1304 38.1237L2.13672 20.1023L20.1304 2.10864ZM9.36226 15.6601H7.16941V17.853L4.92035 20.1021L7.16941 22.4076V24.5442H9.30605L20.1304 35.3403L30.9262 24.5442H33.0911V22.3514L35.3402 20.1023L33.0911 17.8812V15.6601H30.8703L20.1304 4.89204L9.36226 15.6601Z" fill="#33348E"/>
<path fill-rule="evenodd" clip-rule="evenodd" d="M29.8016 15.6882H10.4305L20.1302 5.98853L29.8016 15.6882ZM33.0909 21.255V18.9777L34.2436 20.1021L33.0909 21.255ZM10.3741 24.5163H29.8579L20.1302 34.2439L10.3741 24.5163ZM7.16924 18.9495V21.3112L6.0166 20.1021L7.16924 18.9495Z" fill="#33348E"/>
<path fill-rule="evenodd" clip-rule="evenodd" d="M3.06444 21.9859L1.18086 20.1021L20.1303 1.15287L39.0795 20.1023L37.1957 21.9861L39.0795 23.8697L20.1303 42.8471L1.18086 23.8697L3.06444 21.9859ZM38.3768 22.0141L40.2603 23.8979L20.1303 44L0 23.8979L1.88358 22.0141L0 20.1305L20.1303 0L40.2603 20.1303L38.3768 22.0141Z" fill="#33348E"/>
<path fill-rule="evenodd" clip-rule="evenodd" d="M20.1304 38.9956L36.6899 22.4641L38.1238 23.8696L20.1304 41.8912L2.13672 23.8696L3.57063 22.4641L20.1304 38.9956Z" fill="#33348E"/>
<path fill-rule="evenodd" clip-rule="evenodd" d="M31.2355 23.8414H28.9686L28.8428 22.9136H27.5836L27.4578 23.8414H25.1909L26.7021 16.2224H29.4724L31.2355 23.8414ZM28.7419 20.9174L28.188 19.1462L27.6591 20.9174H28.7419ZM19.5323 23.8414V16.2224H21.5893V18.4997L22.7066 16.2224H24.9413L23.316 19.9616L25.0427 23.8414H22.9096L21.5893 21.4517V23.8414H19.5323ZM14.8482 23.8414V16.2224H18.7252V18.0216H17.0916V19.2024H18.5509V20.777H17.0916V22.014H18.8122V23.8414H14.8482ZM10.3211 23.8414L8.625 16.2224H10.7588L11.5794 19.5961L12.5916 16.2224H14.6977L12.5641 23.8414H10.3211Z" fill="#33348E"/>
</svg>
