<svg width="139" height="44" viewBox="0 0 139 44" fill="none" xmlns="http://www.w3.org/2000/svg">
<path d="M9.93333 1.98486C7.19747 3.40165 4.41275 4.86729 2.11658 7.26117C-0.0330263 9.45963 -0.619281 13.2214 0.699795 16.055C2.01887 18.7909 3.87535 21.2336 6.07381 23.5786C4.55931 15.9084 6.17152 8.14055 9.93333 1.98486Z" fill="#37A58C"/>
<path d="M7.68604 24.9955C10.373 26.7054 13.0112 28.3176 16.089 29.0505C19.46 29.8321 22.6356 28.4153 24.6386 25.7283C26.2997 23.139 27.3745 20.4032 28.3027 17.5208C22.4401 22.4551 15.6005 25.0444 7.68604 24.9955Z" fill="#DD0060"/>
<path d="M27.7653 4.28099C26.4951 1.83825 23.9058 0.274902 21.2676 0.0306291C18.0921 -0.115935 15.1119 0.274903 12.2295 0.958869C18.9226 3.10847 25.5668 8.67791 28.9866 15.0779C29.1332 11.3649 29.3286 7.40769 27.7653 4.28099Z" fill="#4E4E4E"/>
<path d="M86.2444 15.0781V26.9987H82.8246V15.0781H74.959C74.959 15.0781 74.959 43.5604 74.959 43.9512C75.3498 43.9512 82.8246 43.9512 82.8246 43.9512V31.9818H86.1956V43.9512C86.1956 43.9512 93.6703 43.9512 94.0612 43.9512C94.0612 43.5604 94.0612 15.0781 94.0612 15.0781H86.2444Z" fill="black"/>
<path d="M101.682 15.0781C99.1909 15.0781 97.481 17.2277 97.481 19.817V43.9512H105.298C105.298 43.5604 105.298 31.9818 105.298 31.9818H108.473V43.9512H116.241V15.0781C116.29 15.0781 102.562 15.0781 101.682 15.0781ZM108.473 26.9987H105.298C105.298 26.9987 105.298 21.3315 105.298 21.1361C105.298 20.0613 105.689 19.6705 106.666 19.6705C106.763 19.6705 108.473 19.6705 108.473 19.6705V26.9987Z" fill="black"/>
<path d="M51.0201 29.3437C52.8278 29.1483 54.9285 27.2429 54.9285 24.7025C54.9285 23.3834 54.9285 19.817 54.9285 19.817C54.8797 17.1789 52.9255 15.0781 50.8736 15.0781C49.4568 15.0781 35.9729 15.0781 35.9729 15.0781V43.9512H43.7408V31.9818C43.7408 31.9818 45.6461 31.9818 45.695 31.9818C46.6232 31.9818 47.0629 32.4215 47.0629 33.4963V44.0001H54.9285C54.9285 43.9024 54.9285 34.9131 54.9285 34.0826C54.9285 31.4933 52.8766 29.5391 51.0201 29.3437ZM47.0629 25.533C47.1118 26.4124 46.7209 26.901 46.0858 26.9987H43.7897V19.6705C43.7897 19.6705 45.5484 19.6705 45.7438 19.6705C46.7209 19.6705 47.1118 20.159 47.1118 21.1361L47.0629 25.533Z" fill="black"/>
<path d="M66.214 20.6476H71.588V15.0781H58.3484C58.3484 15.0781 58.3484 43.5604 58.3484 43.9512C58.7392 43.9512 71.588 43.9512 71.588 43.9512V38.3818H66.214V31.9818H70.7575V26.9987H66.214V20.6476Z" fill="black"/>
<path d="M137.981 41.0683C138.421 39.9935 138.519 38.9187 138.519 37.5996C138.519 37.2576 138.519 15.1265 138.519 15.1265H130.849C130.849 15.1265 130.849 37.2088 130.849 37.4042C130.849 38.0393 130.458 39.0164 129.139 39.0164C129.09 39.0164 129.09 39.0164 129.09 39.0164C127.771 39.0164 127.38 37.9905 127.38 37.4042C127.38 37.2088 127.38 15.1265 127.38 15.1265H119.71C119.71 15.1265 119.71 37.3065 119.71 37.5996C119.71 39.0164 119.807 40.0424 120.247 41.0683C120.833 42.3874 122.152 43.4622 123.52 43.8042C124.058 43.9507 124.791 43.9507 125.621 43.9507H132.656C133.487 43.9507 134.171 43.9019 134.757 43.8042C136.125 43.4133 137.395 42.3385 137.981 41.0683Z" fill="black"/>
</svg>
