<svg width="73" height="44" viewBox="0 0 73 44" fill="none" xmlns="http://www.w3.org/2000/svg">
<path fill-rule="evenodd" clip-rule="evenodd" d="M28.8696 43.4652V32.4169H31.52L32.6625 38.4922L33.7887 32.4169H36.443V43.4652H34.6022V37.1386L33.287 43.4652H32.0212L30.7144 37.143V43.4652H28.8696ZM61.1245 32.4169H65.4032V34.0824H62.9905V36.9332H65.1652V38.5991H62.9905V41.696H65.4032V43.3866H61.1245V32.4169ZM48.1348 37.3157L48.1436 37.4146L48.1467 37.5087L48.1511 37.6036L48.1599 37.703L48.1644 37.7971L48.1674 37.8916L48.1719 37.9857L48.1763 38.0762L48.1807 38.1712L48.1838 38.2661L48.1882 38.3558L48.1926 38.4472L48.197 38.5368L48.2006 38.6274L48.2045 38.7184L48.209 38.8089V38.895L48.2134 38.9856L48.2169 39.0717L48.2209 39.1582V39.2444L48.2253 39.3314V39.4135L48.2297 39.4996L48.2333 39.5858V39.6688L48.2377 39.7505V39.9152L48.2416 39.9974V40.1577L48.2461 40.2363V40.4744L48.2496 40.5486V41.5931L48.2461 41.6717V42.0462L48.2416 42.1204V42.3955L48.2377 42.4609V42.5885L48.2333 42.6508V42.774L48.2297 42.831V42.9467L48.2253 43.0046V43.058L48.2209 43.1114L48.2134 43.3866H46.3518V32.4169H48.1021L50.1566 38.9692L50.1522 38.9648L50.1482 38.8831L50.1447 38.801L50.1359 38.7148L50.1319 38.6274L50.1239 38.5457L50.1151 38.4596L50.112 38.373L50.1032 38.286L50.0988 38.1963L50.0913 38.1102L50.0824 38.0192L50.0749 37.9322L50.0705 37.8461L50.0626 37.76L50.0586 37.6734L50.0498 37.5873L50.0418 37.5052L50.0378 37.4226L50.029 37.3404L50.0255 37.2623L50.0215 37.1845L50.0126 37.1059L50.0091 37.0273L50.0047 36.95L49.9963 36.8758L49.9919 36.8016L49.9884 36.7283L49.9844 36.6572L49.98 36.5874L49.972 36.5176L49.9676 36.4479L49.9636 36.3781L49.9592 36.3123L49.9557 36.246L49.9513 36.1802L49.9473 36.1193V36.057L49.9429 35.9956L49.9393 35.9338L49.9349 35.8724L49.9309 35.8145L49.9265 35.6993V35.5385L49.923 35.4895V35.1565L49.9186 35.0748V34.6676L49.9142 34.5519V34.2966L49.9102 34.161V33.8695L49.9058 33.7167V33.3881L49.9022 33.2115V32.8449L49.8978 32.4169H51.7965V43.3866H50.0586L48.1184 37.0525L48.1228 37.1178L48.1303 37.2172L48.1348 37.3157ZM15.2793 32.4169H17.1492V41.696H18.9573V43.3866H15.2793V32.4169ZM0.941593 41.1947L1.17522 41.3506L1.22071 41.3793L1.26179 41.4045L1.3033 41.4327L1.34791 41.4579L1.38942 41.4818L1.4305 41.5069L1.47113 41.5321L1.5122 41.552L1.55372 41.5767L1.59479 41.5975L1.63542 41.6182L1.67694 41.6346L1.71801 41.6553L1.75908 41.6717L1.8006 41.688L1.83726 41.7044L1.87833 41.7207L1.9194 41.7331L1.9565 41.7494L1.99757 41.7622L2.03423 41.7741L2.07574 41.7865L2.1124 41.7949L2.1495 41.8028L2.19013 41.8156L2.22767 41.8236L2.26433 41.828L2.30143 41.8355L2.33853 41.8399L2.3796 41.8483H2.4538L2.4825 41.8444L2.51518 41.8399L2.54787 41.8355L2.57657 41.832L2.60572 41.828L2.63443 41.8192L2.66314 41.8156L2.69184 41.8073L2.71658 41.7993L2.74528 41.7909L2.77002 41.7821L2.79431 41.7702L2.81904 41.7622L2.84421 41.7494L2.8685 41.737L2.89324 41.7251L2.91399 41.7123L2.93872 41.696L2.95904 41.6836L2.97936 41.6673L3.00409 41.6509L3.02485 41.6346L3.0456 41.6182L3.06592 41.5975L3.08226 41.5811L3.10302 41.5604L3.12333 41.5396L3.13967 41.5189L3.16043 41.495L3.17677 41.4742L3.19753 41.4491L3.21387 41.4248L3.23021 41.4L3.24258 41.3749L3.25892 41.3506L3.27129 41.3259L3.28807 41.3016L3.30043 41.2724L3.31236 41.2437L3.32473 41.2229L3.33312 41.1947L3.34548 41.1655L3.35387 41.1368L3.36182 41.1041L3.37022 41.0746L3.37817 41.0419L3.38656 41.0092L3.39053 40.9765L3.39892 40.9438L3.4029 40.9107L3.40687 40.8736L3.41085 40.84L3.41482 40.8038V40.7667L3.41924 40.7296V40.6139L3.41482 40.5737V40.5322L3.41085 40.4907L3.40687 40.4461L3.4029 40.413V40.3803L3.39892 40.3467L3.39451 40.314L3.39053 40.2814L3.38258 40.2527L3.37817 40.22L3.37375 40.1864L3.3658 40.1577L3.35741 40.125L3.34946 40.0968L3.34107 40.0672L3.33312 40.0345L3.32473 40.0062L3.31678 39.9766L3.30441 39.9484L3.29602 39.9197L3.28365 39.8861L3.27129 39.8578L3.26334 39.8326L3.24655 39.8039L3.23463 39.7757L3.22182 39.7465L3.20946 39.7178L3.19311 39.6887L3.18119 39.6644L3.16441 39.6361L3.14807 39.6065L3.13173 39.5827L3.11538 39.5531L3.0986 39.5279L3.07829 39.4996L3.05753 39.4753L3.04119 39.4462L3.02043 39.4175L2.99614 39.3883L2.97538 39.3601L2.95065 39.3314L2.92636 39.2987L2.90163 39.2695L2.87689 39.2364L2.84819 39.2082L2.82346 39.1755L2.79431 39.1415L2.76604 39.1088L2.73292 39.0761L2.70421 39.0434L2.67153 39.0107L2.6384 38.9736L2.60572 38.9405L2.57304 38.9034L2.53594 38.8707L2.50282 38.8336L2.46572 38.7965L2.42509 38.7594L2.38799 38.7223L2.35089 38.6852L2.30982 38.6482L2.26874 38.611L2.22767 38.5709L2.1866 38.5338L2.14111 38.4922L2.09562 38.4551L2.0466 38.4101L1.98918 38.3483L1.93574 38.2988L1.88628 38.2454L1.83726 38.1963L1.79177 38.1464L1.74274 38.097L1.69769 38.0479L1.6522 37.9989L1.60716 37.953L1.56608 37.9084L1.52457 37.8625L1.48394 37.8174L1.44242 37.7719L1.40532 37.7313L1.36867 37.6898L1.33157 37.6496L1.29447 37.6081L1.26179 37.5666L1.22911 37.5294L1.19598 37.4888L1.1633 37.4508L1.13459 37.4146L1.10544 37.3819L1.07674 37.3448L1.04803 37.3113L1.0233 37.2751L0.999007 37.2415L0.973834 37.2088L0.949543 37.1801L0.929227 37.1474L0.904495 37.1178L0.883737 37.0852L0.867396 37.0569L0.846639 37.0273L0.825881 36.9955L0.809541 36.9619L0.789225 36.9332L0.772442 36.9005L0.756543 36.867L0.735785 36.8343L0.719444 36.7972L0.702662 36.7645L0.690737 36.7314L0.674396 36.6943L0.658055 36.6616L0.645247 36.6245L0.628907 36.5874L0.61654 36.5503L0.604174 36.5176L0.591808 36.477L0.579442 36.4399L0.567518 36.4028L0.555151 36.3657L0.54676 36.3246L0.534394 36.2875L0.526444 36.246L0.513637 36.2098L0.505687 36.1683L0.497295 36.1268L0.489346 36.0866L0.480954 36.0451L0.473005 36.0036L0.464614 35.962L0.456664 35.913L0.448272 35.8145L0.439881 35.7196L0.431931 35.6251L0.427515 35.531L0.42354 35.4405L0.419565 35.3499V35.2589L0.42354 35.1728V35.0823L0.431931 34.9962L0.435906 34.914L0.443856 34.827L0.456664 34.7449L0.464614 34.6632L0.480954 34.5801L0.493762 34.5028L0.509661 34.4242L0.530419 34.3465L0.550735 34.2679L0.571492 34.1937L0.595783 34.1195L0.620957 34.0462L0.649664 33.9764L0.677929 33.9066L0.711495 33.8359L0.744177 33.7662L0.776859 33.7004L0.813957 33.635L0.850614 33.5692L0.892129 33.5074L0.933202 33.4451L0.97825 33.3837L1.0233 33.3263L1.06879 33.2684L1.11384 33.2115L1.1633 33.158L1.21232 33.1077L1.2662 33.0542L1.31964 33.0096L1.37264 32.9602L1.42608 32.9191L1.48394 32.874L1.54135 32.8325L1.59877 32.7954L1.6606 32.7583L1.72199 32.7212L1.78382 32.6885L1.8452 32.6603L1.91101 32.6267L1.97682 32.6024L2.04262 32.5773L2.1124 32.5534L2.17821 32.5326L2.24799 32.5119L2.32218 32.4911L2.39197 32.4792L2.46572 32.4624L2.53992 32.4505L2.61367 32.4421L2.68787 32.4333L2.76604 32.4253L2.84421 32.4214L2.92238 32.4169H3.05753L3.11097 32.4214H3.16441L3.22182 32.4253H3.27526L3.3287 32.4297L3.38258 32.4377L3.43602 32.4421L3.48902 32.4461L3.54246 32.454L3.5959 32.4624L3.64934 32.4704L3.70278 32.4792L3.75224 32.4867L3.80568 32.4995L3.8547 32.5119L3.90814 32.5238L3.95761 32.5366L4.01105 32.549L4.06051 32.5653L4.10953 32.5773L4.16297 32.5945L4.21244 32.6099L4.2619 32.6267L4.31093 32.6439L4.36039 32.6643L4.40985 32.6841L4.45932 32.7005L4.50437 32.7256L4.55339 32.7464L4.60285 32.7672L4.65232 32.7915L5.45744 33.2278L4.61566 34.7329L4.37276 34.5399L4.34802 34.5192L4.31932 34.4984L4.29458 34.4821L4.26588 34.4613L4.23717 34.445L4.20846 34.4286L4.17976 34.4123L4.15105 34.3955L4.11792 34.3792L4.08922 34.3628L4.05609 34.35L4.02739 34.3381L3.99471 34.3213L3.96202 34.3094L3.9289 34.301L3.89622 34.2886L3.86309 34.2767L3.83041 34.2679L3.79729 34.2604L3.76063 34.2471L3.72751 34.2396L3.69041 34.2352L3.65375 34.2268L3.61665 34.2189L3.57956 34.2144L3.54246 34.21L3.5058 34.2061L3.46473 34.2025L3.42763 34.1981L3.38656 34.1937H3.27968L3.26334 34.1981H3.22624L3.20946 34.2025H3.18914L3.1728 34.2061L3.15646 34.21H3.13967L3.12333 34.2144L3.10699 34.2189L3.09065 34.2224L3.07387 34.2268L3.05753 34.2308L3.04119 34.2352L3.02485 34.2396L3.00851 34.244L2.99216 34.2471L2.97538 34.2515L2.96302 34.2604L2.94667 34.2639L2.93033 34.2723L2.91399 34.2767L2.90163 34.2842L2.88529 34.2886L2.87292 34.2966L2.85614 34.305L2.84024 34.3129L2.82787 34.3173L2.81506 34.3257L2.80314 34.3337L2.78636 34.3421L2.77443 34.35L2.76162 34.3584L2.74926 34.3664L2.73733 34.3752L2.72497 34.3871L2.7126 34.3955L2.70024 34.4035L2.68787 34.4163L2.67948 34.4242L2.66711 34.437L2.65475 34.445L2.64282 34.4569L2.63443 34.4697L2.62206 34.4821L2.61367 34.494L2.60131 34.5068L2.59336 34.5192L2.58099 34.5311L2.57304 34.5439L2.56023 34.5603L2.55228 34.5726L2.53992 34.589L2.53197 34.6009L2.52358 34.6172L2.51518 34.6336L2.50282 34.6503L2.49487 34.6676L2.48648 34.6839L2.47853 34.7003L2.47014 34.7166L2.46175 34.7329L2.4538 34.7493L2.4454 34.77L2.43701 34.7864L2.43304 34.8071L2.42509 34.827L2.4167 34.8478L2.40831 34.8685L2.40433 34.8893L2.39594 34.9096L2.39197 34.9304L2.38357 34.9502L2.3796 34.9754L2.37121 34.9962L2.36723 35.0209L2.36326 35.0452L2.35884 35.0704L2.35089 35.0942L2.34648 35.1194L2.3425 35.1446L2.33853 35.1684L2.33411 35.198L2.33013 35.2218V35.2514L2.32616 35.2757L2.32218 35.3049L2.31777 35.3331V35.3618L2.31379 35.391V35.4197L2.30982 35.4444V35.4608L2.31379 35.4859V35.5266L2.31777 35.5518V35.5721L2.32218 35.5919V35.6127L2.32616 35.6379L2.33013 35.6586L2.33411 35.6785L2.33853 35.6993L2.3425 35.7196L2.35089 35.7403L2.35487 35.7567L2.35884 35.7774L2.36723 35.7982L2.37562 35.8189L2.3796 35.8353L2.38799 35.856L2.39594 35.8759L2.40433 35.8931L2.41228 35.913L2.42067 35.9338L2.43304 35.9501L2.44143 35.9709L2.4538 35.9872L2.46175 36.0036L2.47411 36.0243L2.48648 36.0407L2.49884 36.0614L2.51121 36.0778L2.52358 36.0985L2.53992 36.1193L2.55626 36.1391L2.57304 36.1639L2.59336 36.1846L2.61367 36.2133L2.63443 36.2381L2.65916 36.2668L2.68389 36.2959L2.70863 36.3286L2.73733 36.3573L2.76604 36.3909L2.79431 36.4271L2.82787 36.4607L2.86055 36.4969L2.89324 36.534L2.92636 36.5711L2.96302 36.6126L3.00011 36.6541L3.04119 36.6943L3.08226 36.7358L3.12333 36.7817L3.16441 36.8263L3.20946 36.8714L3.25494 36.9204L3.30043 36.9703L3.34946 37.0198L3.39892 37.0688L3.44794 37.1178L3.49741 37.1717L3.55085 37.2252L3.60429 37.283L3.65773 37.332L3.70675 37.3855L3.76063 37.4389L3.80965 37.4888L3.85912 37.5414L3.90814 37.5917L3.95363 37.6407L3.99868 37.6898L4.0477 37.7392L4.08922 37.7891L4.13471 37.8382L4.17976 37.8876L4.22083 37.9366L4.2619 37.9821L4.30298 38.0316L4.34007 38.0762L4.37673 38.1221L4.4178 38.1667L4.4549 38.2127L4.48758 38.2577L4.52468 38.3032L4.55781 38.3483L4.59049 38.3938L4.62317 38.4344L4.65629 38.4799L4.685 38.5205L4.71371 38.5664L4.74286 38.6071L4.77156 38.6482L4.80027 38.6897L4.82456 38.7303L4.85371 38.7718L4.878 38.8129L4.90273 38.8579L4.92349 38.8994L4.94822 38.9405L4.96854 38.9856L4.99327 39.0271L5.01403 39.0717L5.03434 39.1176L5.05069 39.1622L5.07144 39.2082L5.08778 39.2528L5.10412 39.2987L5.12488 39.3437L5.13725 39.3883L5.15359 39.4343L5.16993 39.4833L5.1823 39.5279L5.19466 39.5783L5.20703 39.6273L5.21939 39.6732L5.23176 39.7222L5.23971 39.7713L5.2481 39.8207L5.26003 39.8697L5.26886 39.9197L5.27283 39.9691L5.28078 40.0181L5.2852 40.0716L5.29359 40.1206L5.29757 40.174L5.30154 40.2235L5.30552 40.2769L5.30993 40.3719V40.4664L5.31391 40.5574V40.651L5.30993 40.742L5.30552 40.8325L5.30154 40.9187L5.29359 41.0092L5.2852 41.0953L5.27681 41.1775L5.26444 41.26L5.2481 41.3422L5.23574 41.4248L5.21498 41.5025L5.19864 41.5855L5.17832 41.6628L5.15359 41.7415L5.12886 41.8156L5.10412 41.8898L5.07586 41.9632L5.04671 42.0374L5.01403 42.1071L4.98091 42.1774L4.94381 42.2427L4.90715 42.3134L4.87005 42.3792L4.82898 42.4401L4.7879 42.5068L4.74286 42.5678L4.69737 42.63L4.6479 42.687L4.60285 42.7449L4.54942 42.7983L4.49995 42.8517L4.44651 42.9052L4.39351 42.9542L4.34007 43.0046L4.28619 43.0536L4.22878 43.0982L4.17181 43.1397L4.11395 43.1812L4.05256 43.2218L3.99471 43.2634L3.93332 43.296L3.87148 43.3331L3.80568 43.3658L3.73987 43.3941L3.67804 43.4281L3.61268 43.452L3.54246 43.4815L3.47665 43.5023L3.40687 43.5261L3.33709 43.5469L3.26731 43.5632L3.19753 43.5796L3.12333 43.5959L3.04958 43.6092L2.97538 43.6211L2.90163 43.6291L2.82787 43.6374L2.74926 43.6463L2.6755 43.6498L2.59733 43.6538H2.45777L2.39594 43.6498H2.33853L2.27714 43.6463L2.21928 43.6419L2.15789 43.633L2.10004 43.6291L2.04262 43.6211L1.98918 43.6127L1.93177 43.6003L1.87435 43.5928L1.82047 43.5796L1.76703 43.5632L1.71404 43.5513L1.6606 43.535L1.60716 43.5186L1.55372 43.5023L1.50425 43.4846L1.45081 43.4652L1.40179 43.4444L1.35233 43.4237L1.3033 43.3985L1.25781 43.3742L1.20835 43.3495L1.1633 43.3252L1.11384 43.296L1.06879 43.2673L1.0233 43.2382L0.982225 43.2095L0.937177 43.1768L0.896103 43.1441L0.86298 43.1189L0 42.5232L0.941593 41.1947ZM9.71935 39.792H10.8906L10.3112 36.0733L9.71935 39.792ZM9.58376 32.4169H11.092L13.4919 43.3866H11.5813L11.1582 41.355H9.43625L9.02508 43.3866H7.15514L9.58376 32.4169ZM23.3053 39.792H24.4805L23.8971 36.0733L23.3053 39.792ZM23.1737 32.4169H24.6819L27.0818 43.3866H25.1713L24.7477 41.355H23.0262L22.615 43.3866H20.7455L23.1737 32.4169ZM40.7915 39.792H41.9618L41.3829 36.0733L40.7915 39.792ZM40.6594 32.4169H42.1672L44.568 43.3866H42.6574L42.2295 41.355H40.5119L40.0972 43.3866H38.2273L40.6594 32.4169ZM56.099 41.6138L56.1361 41.601L56.1688 41.5891L56.1971 41.5772L56.2297 41.5652L56.2589 41.5489L56.2916 41.5361L56.3198 41.5197L56.349 41.5034L56.3772 41.4871L56.4024 41.4707L56.4307 41.4544L56.455 41.438L56.4801 41.4173L56.5053 41.3965L56.5296 41.3758L56.5548 41.3559L56.5791 41.3351L56.5998 41.31L56.625 41.2848L56.6458 41.2605L56.6701 41.2353L56.6908 41.2146L56.7116 41.1863L56.7314 41.158L56.7522 41.1289L56.773 41.1006L56.7937 41.0679L56.8145 41.0353L56.8352 41.0026L56.8516 40.969L56.8723 40.9363L56.8887 40.8992L56.9094 40.8621L56.9258 40.8259L56.9421 40.7844L56.9585 40.7429L56.9748 40.7014L56.9867 40.6607L57.0031 40.6192L57.0194 40.5742L57.0322 40.5282L57.0485 40.4832L57.0605 40.4333L57.0724 40.3882L57.0843 40.3392L57.0971 40.2858L57.109 40.2368L57.121 40.1833L57.1298 40.1255L57.1417 40.072L57.1537 40.0142L57.1625 39.9572L57.1744 39.8993L57.1832 39.8415L57.1952 39.7792L57.204 39.7178L57.212 39.6555L57.2208 39.5902L57.2287 39.5248L57.2376 39.4586L57.2455 39.3932L57.2544 39.3278L57.2579 39.2581L57.2667 39.1883L57.2711 39.1185L57.2791 39.0443L57.2835 38.9701L57.2879 38.8959L57.2923 38.8217L57.2967 38.744L57.3003 38.6698L57.3047 38.5912L57.3091 38.509V38.4304L57.3126 38.3483V37.6575L57.3091 37.559V37.4597L57.3047 37.3612V37.2662L57.3003 37.1713L57.2967 37.0807L57.2923 36.9911L57.2835 36.9005L57.2791 36.8144L57.2756 36.7283L57.2667 36.6413L57.2623 36.5592L57.2544 36.477L57.2455 36.3984L57.2376 36.3198L57.2287 36.242L57.2208 36.1679L57.212 36.0937L57.204 36.0239L57.1952 35.9541L57.1832 35.8843L57.1744 35.8189L57.1625 35.7527L57.1506 35.6873L57.1417 35.6251L57.1298 35.5637L57.1179 35.5058L57.1051 35.4488L57.0932 35.3954L57.0812 35.3376L57.0684 35.2841L57.0521 35.2351L57.0402 35.1817L57.0238 35.1317L57.0075 35.0867L56.9955 35.0377L56.9792 34.9917L56.962 34.9502L56.9421 34.9052L56.9258 34.8637L56.9094 34.8266L56.8887 34.7859L56.8723 34.7488L56.8516 34.7117L56.8352 34.6791L56.8145 34.6464L56.7937 34.6137L56.773 34.5801L56.7522 34.5519L56.7314 34.5236L56.7116 34.4984L56.6908 34.4702L56.6656 34.445L56.6458 34.4207L56.625 34.3999L56.5998 34.3792L56.5791 34.3584L56.5548 34.3377L56.534 34.3213L56.5089 34.305L56.4846 34.2886L56.4554 34.2679L56.4311 34.256L56.4029 34.2396L56.3737 34.2224L56.3454 34.2105L56.3172 34.1941L56.2836 34.1822L56.2509 34.1703L56.2182 34.1575L56.1856 34.1455L56.1529 34.1367L56.1158 34.1248L56.0787 34.1168L56.0416 34.108L56.001 34.1001L55.9639 34.0912L55.9223 34.0824L55.8817 34.0744L55.8402 34.07L55.7951 34.0665L55.7536 34.0621L55.7077 34.0577L55.6627 34.0532H55.6136L55.5677 34.0488H55.535V41.699H55.5478L55.5929 41.6946H55.6379L55.6794 41.6911L55.7245 41.6867L55.766 41.6823L55.8031 41.6779L55.8446 41.6699L55.8852 41.6655L55.9223 41.6575L55.9594 41.6487L55.9965 41.6399L56.0336 41.6319L56.0663 41.62L56.099 41.6138ZM53.6373 32.4169H55.9506L56.0456 32.4214L56.1396 32.4258L56.2302 32.4302L56.3207 32.4381L56.4112 32.447L56.4974 32.4549L56.5835 32.4668L56.6696 32.4796L56.7518 32.496L56.8348 32.5079L56.9125 32.5287L56.9911 32.545L57.0689 32.5658L57.1475 32.5909L57.2217 32.6152L57.2915 32.6404L57.3648 32.6656L57.4345 32.6983L57.5043 32.7265L57.5697 32.7592L57.6359 32.7919L57.7013 32.829L57.7636 32.8661L57.825 32.9032L57.8828 32.9447L57.9398 32.9853L57.9976 33.0313L58.0511 33.0763L58.1045 33.1262L58.1535 33.1752L58.2026 33.2243L58.2485 33.2733L58.2935 33.3232L58.3395 33.3758L58.3801 33.4248L58.4216 33.4791L58.4623 33.5325L58.4994 33.5851L58.5365 33.6429L58.5736 33.6964L58.6107 33.7542L58.6478 33.8121L58.6804 33.87L58.7131 33.9269L58.7414 33.9892L58.7749 34.0471L58.8032 34.1084L58.8275 34.1707L58.8566 34.2321L58.8809 34.2975L58.9061 34.3597L58.9313 34.4251L58.9512 34.4914L58.9763 34.5567L58.9927 34.6221L59.0134 34.6919L59.0298 34.7572L59.0505 34.827L59.0625 34.8977L59.0788 34.9674L59.0907 35.0372L59.1026 35.107L59.1155 35.1812L59.1234 35.251L59.1362 35.3243L59.1442 35.3985L59.153 35.4771L59.1649 35.5513L59.1738 35.629L59.1817 35.7121L59.1897 35.7942L59.1941 35.8764L59.2029 35.9625L59.2108 36.0495L59.2197 36.1356L59.2241 36.2261L59.232 36.3167L59.2365 36.4072L59.2409 36.5013L59.2453 36.5962L59.2533 36.6947L59.2577 36.7941L59.2621 36.8926L59.2656 36.9959V37.0984L59.27 37.2009L59.2744 37.3077V37.4146L59.2789 37.525V37.6363L59.2824 37.7476V38.4512L59.2789 38.5709V38.6857L59.2744 38.8014L59.27 38.9118L59.2656 39.0231L59.2577 39.1344L59.2533 39.2413L59.2453 39.3482L59.2365 39.4506L59.2285 39.5531L59.2197 39.6516L59.2078 39.7549L59.195 39.849L59.183 39.9484L59.1711 40.0433L59.1592 40.133L59.1464 40.2279L59.13 40.314L59.1137 40.4046L59.0973 40.4907L59.081 40.5737L59.0602 40.6599L59.0439 40.7376L59.0231 40.8206L59.0024 40.8983L58.9825 40.977L58.9574 41.0512L58.9366 41.1245L58.9123 41.1951L58.8871 41.2649L58.8589 41.3303L58.8337 41.4L58.8054 41.4654L58.7772 41.5317L58.7436 41.597L58.7153 41.6624L58.6826 41.7247L58.65 41.7861L58.6129 41.8439L58.5802 41.9053L58.5431 41.9632L58.5016 42.0166L58.4645 42.0745L58.4238 42.1279L58.3823 42.1813L58.3417 42.2348L58.2958 42.2838L58.2507 42.3328L58.2048 42.3827L58.1597 42.4278L58.1107 42.4737L58.0608 42.5187L58.0118 42.5603L57.9628 42.6009L57.9093 42.6424L57.8559 42.6839L57.8024 42.721L57.749 42.7581L57.692 42.7908L57.6342 42.8235L57.5763 42.8562L57.5193 42.8888L57.4571 42.918L57.3992 42.9463L57.3378 42.9745L57.2764 42.9997L57.2102 43.028L57.1448 43.0531L57.0795 43.0774L57.0141 43.1026L56.9443 43.1234L56.8789 43.1441L56.8048 43.164L56.7341 43.1856L56.6608 43.2055L56.5866 43.2218L56.5124 43.2426L56.4391 43.2589L56.3605 43.2718L56.2827 43.2881L56.1997 43.3L56.122 43.3119L56.0398 43.3248L55.9568 43.3367L55.8707 43.3446L55.7845 43.3535L55.6984 43.3614L55.6123 43.3702L55.5262 43.3747L55.4356 43.3782L55.346 43.3826L55.251 43.387H53.6395V32.4169H53.6373ZM69.435 36.999L69.4884 36.9739L69.5375 36.9496L69.5825 36.9244L69.6276 36.8917L69.6735 36.859L69.715 36.8263L69.7512 36.7848L69.7883 36.7442L69.8254 36.6983L69.8581 36.6493L69.8872 36.5958L69.9199 36.538L69.9442 36.4766L69.9694 36.4143L69.9946 36.3445L70.0144 36.2703L70.0352 36.1926L70.0515 36.1096L70.0635 36.0234L70.0763 35.9373L70.0842 35.8424L70.0931 35.7439L70.0975 35.6414V35.4396L70.0931 35.3455L70.0886 35.2585L70.0807 35.1724L70.0719 35.0902L70.0599 35.0116L70.0436 34.9374L70.0273 34.8632L70.0109 34.7943L69.9902 34.7321L69.9694 34.6698L69.9442 34.6128L69.9199 34.5594L69.8948 34.5059L69.8665 34.46L69.8373 34.415L69.8055 34.3734L69.772 34.3363L69.7393 34.3037L69.7022 34.271L69.666 34.2427L69.628 34.2136L69.5874 34.1893L69.5459 34.1685L69.5008 34.1478L69.4518 34.1314L69.4019 34.1151L69.3484 34.1023L69.2959 34.0943L69.238 34.0855L69.1758 34.0811H69.1144V37.0675H69.1232L69.1886 37.0595L69.2539 37.0467L69.3193 37.0348L69.3771 37.0185L69.435 36.999ZM69.7636 32.4333L69.8334 32.4377L69.8987 32.4465L69.9641 32.4545L70.0295 32.4633L70.0957 32.4752L70.1571 32.4841L70.2225 32.5004L70.2847 32.5123L70.3426 32.5287L70.404 32.545L70.4618 32.5614L70.5188 32.5821L70.5767 32.5985L70.6345 32.6236L70.688 32.6444L70.7414 32.6687L70.7948 32.6938L70.8474 32.7181L70.8964 32.7473L70.9463 32.7756L70.9953 32.8047L71.0444 32.833L71.0894 32.8656L71.1353 32.8983L71.1804 32.9354L71.2263 32.9725L71.2678 33.0096L71.3085 33.0467L71.35 33.0882L71.3862 33.1298L71.4277 33.1704L71.4648 33.2163L71.4975 33.2614L71.5346 33.3104L71.5673 33.3594L71.6 33.4093L71.6326 33.4583L71.6618 33.5118L71.6901 33.5652L71.7183 33.6222L71.7475 33.68L71.7718 33.7379L71.8009 33.7958L71.8217 33.8571L71.846 33.9194L71.8667 33.9808L71.8875 34.0471L71.9082 34.1124L71.9281 34.1778L71.9444 34.2476L71.9608 34.3129L71.9771 34.3871L71.9899 34.4569L72.0019 34.5311L72.0138 34.6053L72.0266 34.6839L72.0345 34.7572L72.0434 34.8358L72.0513 34.918L72.0557 34.9922L72.0602 35.0664L72.0646 35.1406L72.069 35.2148V35.4365L72.0646 35.5063V35.5805L72.0602 35.6502L72.0513 35.72L72.0478 35.7942L72.039 35.864L72.031 35.9338L72.0222 36L72.0102 36.0698L72.0014 36.1387L71.9895 36.2049L71.9767 36.2703L71.9603 36.3401L71.944 36.4063L71.9321 36.4717L71.9122 36.5384L71.8967 36.6007L71.8795 36.666L71.8588 36.7314L71.8389 36.7937L71.8181 36.8551L71.793 36.9173L71.7722 36.9787L71.7479 37.041L71.7227 37.1024L71.6945 37.1646L71.6693 37.226L71.641 37.2839L71.6128 37.3417L71.5792 37.3952L71.5509 37.4486L71.5183 37.5021L71.4856 37.5511L71.4529 37.6001L71.4158 37.65L71.3831 37.6951L71.3416 37.7401L71.3045 37.786L71.2683 37.8276L71.2268 37.8682L71.1853 37.9053L71.1402 37.9424L71.0987 37.9795L71.0528 38.0122L71.0077 38.0404L70.9627 38.074L70.9136 38.0983L70.8637 38.1274L70.8147 38.1517L70.7657 38.1725L70.7167 38.1932L70.6707 38.2096L72.6109 43.2806L70.9428 44L69.1139 39.209V43.3875H67.248V32.4169H69.4796L69.5538 32.4214H69.6236L69.6934 32.4258L69.7636 32.4333ZM33.4354 10.9431L33.5913 10.7992C30.7762 10.1 34.2449 7.19221 34.7259 6.60791C34.4706 6.65738 32.9341 7.26199 31.894 8.3193L32.4982 6.88394L30.5011 7.24565L32.2641 6.26652L30.1805 5.94147L32.7327 5.37395L31.319 4.44428C31.27 4.39084 32.3012 4.60901 33.1598 4.7817C32.3706 2.59378 33.6938 4.18945 34.0802 4.94643C42.7555 4.76978 37.109 8.25747 37.109 8.25747L37.1209 8.2822C48.4514 0.154996 56.0129 -2.94228 71.9537 3.72086L71.978 3.90989C55.9683 0.187678 48.636 3.53184 41.9875 12.9173L42.0325 12.9213C42.3412 13.8757 45.1974 12.5512 46.4715 12.5348C47.4904 12.5225 48.9576 13.4769 47.9422 15.0354C47.6057 16.2531 46.1133 16.8493 45 18.5563C45.0415 19.2019 45.6289 20.148 45.5675 20.0905L44.6625 19.7368L44.0716 21.4764L43.4997 20.0658L41.7613 21.9658L42.2463 19.8679L40.8904 19.8516L42.551 18.774L41.4615 18.5399L42.7683 18.2763C43.5575 17.3921 43.9603 16.9147 44.8065 15.8331C43.5818 16.3268 39.4807 20.1846 38.3584 17.495V17.4866L38.3673 17.4747C32.3547 24.9027 26.0179 30.9529 14.5731 25.3011L14.5112 25.3382C15.0041 26.2396 14.6795 26.8071 14.9383 27.9457C15.1481 28.859 14.4331 30.4962 12.6126 30.1058C11.2854 30.2083 10.377 29.0688 8.38778 28.6413C7.72221 28.8921 6.84687 29.7361 6.89633 29.6619L7.09331 28.7323L5.16993 28.7813L6.52623 27.7986L4.21685 26.8729L6.49355 26.6057L6.25506 25.3802L7.68953 26.5112L7.7306 25.4544L8.25263 26.5404C9.3254 26.9511 9.90042 27.1569 11.1865 27.5522C10.4388 26.6181 8.09629 24.1422 8.23629 22.5792L8.21156 22.6C8.13196 22.2681 8.04701 21.9376 7.95673 21.6085C3.88827 20.0623 2.52799 20.091 1.20879 15.2501C0.255272 12.2146 0.493762 9.02726 4.22525 10.6026C10.9489 11.2483 7.83748 10.1751 10.899 13.1651C10.8168 12.6841 9.91279 12.0177 10.7634 10.9895C11.6714 10.1835 14.3964 10.6976 15.0867 10.702C15.6043 9.5749 14.1455 10.0232 12.7358 10.0232L13.8125 9.39383L11.6016 8.83029L14.4781 8.62845L14.2891 7.46029L15.2223 7.99513L15.6251 7.13568C15.6498 7.05751 16.5826 8.97824 16.8745 9.58286C22.2701 13.264 17.7701 14.1323 17.4495 14.3045C19.1141 15.2342 18.9251 15.7522 22.1469 16.1471C26.0215 15.7801 28.5861 14.9493 33.4354 10.9431ZM8.46551 19.7165L8.44077 19.7288C2.2396 18.8813 3.69836 16.0848 1.34747 14.2665L1.39693 14.2462C3.74385 16.064 3.01645 18.5359 8.46551 19.7165ZM71.8632 3.74957L71.9745 3.97569L71.9003 3.79462C58.0842 -3.391 47.8022 0.631535 37.1422 8.28176L37.1302 8.25703C37.1302 8.25703 42.7723 4.76933 34.1014 4.94158C33.7105 4.18901 32.3878 2.58936 33.181 4.77728C32.3176 4.60857 31.2903 4.38643 31.3358 4.43986L32.7535 5.37351L30.2017 5.94103L32.2853 6.2621L30.5183 7.24079L32.5194 6.87864L31.9152 8.314C32.9509 7.26111 34.4918 6.65252 34.7427 6.60306C34.2617 7.18736 30.7974 10.0991 33.6085 10.7943L33.4522 10.9383C28.6064 14.9449 26.0422 15.7801 22.1628 16.1422C18.941 15.7474 19.1295 15.2289 17.4694 14.2997C17.7856 14.1265 22.286 13.2631 16.8944 9.578C16.5985 8.97338 15.6657 7.05265 15.641 7.13082L15.2422 7.99027L14.3094 7.45544L14.4944 8.62757L11.618 8.8294L13.8329 9.38853L12.7561 10.0179C14.1619 10.0223 15.6202 9.57402 15.1026 10.7011C14.4158 10.6923 11.6913 10.1782 10.7833 10.9846C9.93266 12.0128 10.8367 12.6832 10.9189 13.1646C7.85338 10.1702 10.9644 11.2479 4.2407 10.5982C1.53252 9.45477 0.665122 10.8243 0.760076 12.8232L0.764051 12.8276C0.784366 11.3631 1.58993 10.52 3.04075 11.746C3.4475 12.4288 3.76019 13.1487 4.1749 13.7123C3.47621 14.588 3.98985 14.7033 4.83649 14.3332C5.06186 14.5558 5.35887 14.6914 5.67473 14.7157C6.12301 15.9576 5.33776 15.9126 6.55406 14.7899C7.04296 14.8102 7.67628 14.6251 8.48582 14.1442C9.22161 14.3787 10.0104 14.7364 10.524 15.5385C10.3271 16.2005 10.1296 16.8546 9.93266 17.5131C9.91234 18.0598 10.471 18.611 11.2068 18.8411C12.0164 19.1825 12.8135 19.5115 13.5944 19.8366C35.7448 34.6958 36.6943 -8.87317 71.8632 3.74957ZM48.6444 3.12022C48.2253 2.56904 49.1541 2.14109 49.355 2.31819C49.4871 2.49926 49.3802 2.857 49.2402 3.06678C49.1457 3.26464 48.8008 3.25183 48.6444 3.12022ZM44.617 5.29622C43.8362 4.58826 45.1104 3.74515 45.4632 3.95096C45.7141 4.18547 45.6487 4.73665 45.5003 5.07805C45.4098 5.38676 44.8922 5.44815 44.617 5.29622ZM40.4912 8.07639C39.3482 7.24963 40.9103 5.97856 41.4071 6.2091C41.7772 6.48072 41.7728 7.20855 41.6297 7.67317C41.5591 8.08876 40.8776 8.23671 40.4912 8.07639ZM35.7611 8.82101C34.96 8.24157 36.057 7.34458 36.4103 7.5049C36.6691 7.69834 36.6647 8.21242 36.5662 8.53703C36.5132 8.8294 36.0323 8.93628 35.7611 8.82101ZM37.5282 10.7581C36.0813 10.1 37.5118 8.4381 38.1111 8.58208C38.5802 8.80025 38.7444 9.58153 38.6866 10.104C38.7034 10.5607 37.9883 10.853 37.5282 10.7581ZM33.6081 10.1861C32.5353 9.41724 33.9985 8.22832 34.4627 8.4381C34.812 8.69337 34.808 9.37616 34.6725 9.81207C34.6022 10.199 33.9654 10.3385 33.6081 10.1861ZM34.8942 13.0904C33.2256 12.4695 35.005 10.6145 35.6993 10.7378C36.2377 10.9431 36.3856 11.7659 36.2911 12.3295C36.2871 12.8148 35.4281 13.1682 34.8942 13.0904ZM31.705 16.2327C29.6173 15.455 31.849 13.1315 32.7243 13.2794C33.4027 13.5383 33.5878 14.5752 33.4681 15.2783C33.4601 15.8874 32.3834 16.3312 31.705 16.2327ZM27.8914 19.2351C25.1585 18.2193 28.076 15.1799 29.2185 15.3773C30.1018 15.7143 30.3443 17.0675 30.1924 17.9848C30.1805 18.7824 28.7707 19.3627 27.8914 19.2351ZM22.9639 22.2537C19.031 20.7897 23.2307 16.4134 24.8749 16.7013C26.1531 17.1867 26.498 19.1322 26.2803 20.4567C26.2595 21.6001 24.2341 22.4392 22.9639 22.2537ZM19.1587 21.9371C15.0165 20.2464 20.1162 16.5697 21.9777 17.0017C22.3929 17.911 21.4438 18.7908 20.5066 19.3751C20.2107 20.9663 19.9188 21.9247 19.1587 21.9371ZM15.3738 20.1029C12.6819 17.8858 17.4288 16.0883 18.7148 16.8285C18.8054 17.635 17.8726 18.1203 17.0216 18.3792C16.4015 19.5641 15.9453 20.2553 15.3738 20.1029ZM11.4042 17.5365C11.3468 16.8003 12.0455 15.8052 13.151 15.077C15.0452 14.2833 15.7686 14.9414 16.3436 15.4921C16.3273 15.8167 16.167 16.1833 15.8874 16.545C15.4643 16.8621 14.8398 17.1496 14.0793 17.3272C12.9125 17.8982 12.4726 18.6057 11.4042 17.5365ZM16.163 13.0405C15.3367 14.9657 11.5765 13.2834 11.6754 12.4567C12.3697 12.1771 13.2327 12.465 13.8492 12.7861C15.2139 12.7203 16.0437 12.7283 16.163 13.0405ZM16.2575 11.2231C17.4164 10.1619 19.2201 12.3741 18.8835 12.901C18.3536 12.8926 17.9053 12.4487 17.6262 12.0578C16.7464 11.7125 16.2288 11.47 16.2575 11.2231ZM5.87259 13.7851C6.84245 13.9331 7.5906 13.4892 8.16563 12.8307C8.07951 12.2098 7.5778 11.7284 6.76472 11.4612C6.1972 11.3093 5.61776 11.3994 5.211 11.663C5.51927 11.8931 5.84786 12.1731 6.29172 12.5021C5.69991 12.568 5.19025 12.6417 4.70929 12.7159C4.80027 13.1849 5.23971 13.6124 5.87259 13.7851ZM50.2803 4.39128C49.787 5.05773 49.0477 4.47343 49.1832 4.20226C49.3436 3.98408 49.775 3.88957 50.0502 3.89399C50.2922 3.87323 50.3783 4.1815 50.2803 4.39128ZM46.8566 6.57921C46.2286 7.4307 45.2791 6.68211 45.4513 6.33674C45.6611 6.06115 46.2114 5.93352 46.5607 5.94588C46.8739 5.91718 46.9843 6.31201 46.8566 6.57921ZM43.52 8.90713C43.5571 10.0669 42.0528 10.0422 41.9588 9.62304C41.9499 9.24455 42.3942 8.77155 42.7396 8.5494C43.0231 8.3193 43.4339 8.59091 43.52 8.90713ZM44.0376 15.4471C43.5156 16.4094 42.1518 16.0808 42.2666 15.7187C42.4393 15.406 43.0757 15.1061 43.4992 14.9948C43.8729 14.8628 44.1158 15.1719 44.0376 15.4471ZM41.223 11.2518C41.3625 12.564 39.4021 12.8025 39.2426 12.3418C39.2055 11.9139 39.7439 11.2929 40.1794 10.9802C40.5318 10.6675 41.0909 10.9065 41.223 11.2518ZM41.654 16.7839C40.8321 18.1945 38.774 17.7542 38.9582 17.2238C39.2289 16.7632 40.1988 16.3109 40.848 16.1382C41.416 15.9324 41.7733 16.3763 41.654 16.7839ZM38.8429 14.4185C38.5722 16.0636 36.6409 15.4797 36.632 14.8588C36.7226 14.32 37.4257 13.8143 37.9353 13.6288C38.3668 13.4111 38.8186 13.9459 38.8429 14.4185ZM36.0159 17.7255C35.6547 19.9302 33.0697 19.1485 33.0569 18.3138C33.1845 17.5943 34.1257 16.9151 34.808 16.6687C35.3791 16.3723 35.9872 17.0878 36.0159 17.7255ZM31.9559 21.5299C31.5699 23.8746 28.8202 23.0438 28.8083 22.1557C28.9394 21.3903 29.9384 20.6709 30.6658 20.4076C31.2779 20.0905 31.9267 20.8555 31.9559 21.5299ZM27.3407 24.5861C25.824 26.7493 23.0836 25.1081 23.4776 24.2403C23.9793 23.5372 25.446 23.1423 26.3951 23.1017C27.2338 22.982 27.6162 23.9196 27.3407 24.5861ZM22.2736 24.9478C20.56 28.148 17.6747 24.5569 18.1641 23.1388C18.9736 22.7678 19.6807 23.4259 20.1325 24.0963C21.4972 24.2195 22.3063 24.3803 22.2736 24.9478ZM17.2932 24.1462C14.6958 26.8151 13.1139 22.5342 14.0095 21.275C14.8849 21.1355 15.3411 21.9662 15.5548 22.7395C16.7915 23.2249 17.4985 23.5986 17.2932 24.1462ZM14.108 28.5878C14.1451 29.7481 12.6453 29.7229 12.5508 29.3038C12.5384 28.9253 12.9822 28.4523 13.3316 28.2297C13.6151 27.9996 14.0259 28.2712 14.108 28.5878ZM11.4126 25.3386C9.80547 26.2683 8.45358 23.2536 8.98356 22.7276C9.57139 22.8751 9.93708 23.5005 10.1341 24.0265C11.0098 24.6475 11.5191 25.0635 11.4126 25.3386ZM12.9412 22.9118C12.4523 22.937 11.7783 22.4348 11.2766 21.6496C10.7179 20.3167 11.1454 19.8233 11.5027 19.4325C11.7205 19.4448 11.9629 19.5641 12.2098 19.7655C12.4275 20.0658 12.6285 20.5057 12.7601 21.0361C13.1589 21.8629 13.6354 22.1795 12.9412 22.9118Z" fill="#33A457"/>
<path d="M56.1453 0.067479C60.692 -0.269951 65.5316 0.637769 70.9016 3.25022C71.2529 3.39069 71.6083 3.53604 71.968 3.68638C71.9803 3.69152 71.9889 3.70285 71.9906 3.71608L72.0149 3.90509C72.0165 3.91722 72.012 3.92935 72.0029 3.93755C72.002 3.93839 72.001 3.93911 72 3.93984L72.0089 3.96149C72.0165 3.9801 72.008 4.00141 71.9897 4.00968C71.9714 4.01793 71.9498 4.01019 71.9409 3.99215L71.9117 3.93283C63.9395 2.08537 58.1287 1.99648 53.4839 3.53361C48.8451 5.06876 45.3639 8.22759 42.0526 12.8899C42.0597 12.8945 42.0652 12.9014 42.0679 12.9097C42.1373 13.1243 42.3506 13.2188 42.6782 13.2285C43.0039 13.2381 43.4256 13.1626 43.8814 13.0557C44.3379 12.9486 44.8205 12.8122 45.2748 12.7C45.7264 12.5885 46.1476 12.5016 46.4709 12.4975L46.4954 12.4974C47.0097 12.4987 47.6286 12.7373 47.998 13.1718C48.1864 13.3933 48.3102 13.6662 48.3212 13.9841C48.3322 14.3006 48.2312 14.6582 47.9765 15.0508C47.8038 15.6686 47.3393 16.1276 46.7877 16.6397C46.235 17.1528 45.5902 17.7229 45.038 18.5661C45.0614 18.8791 45.2136 19.2654 45.356 19.5713C45.4278 19.7255 45.4965 19.8579 45.5436 19.9486C45.5669 19.9936 45.5854 20.0291 45.596 20.0515C45.6007 20.0615 45.6058 20.0727 45.6078 20.0811C45.6083 20.0831 45.6096 20.0888 45.609 20.0956C45.6087 20.0991 45.6075 20.1061 45.6028 20.1133C45.5973 20.1217 45.5884 20.1278 45.578 20.1297C45.569 20.1313 45.5618 20.1294 45.5583 20.1281C45.5544 20.1268 45.5515 20.1251 45.5497 20.1239C45.5494 20.1238 45.5492 20.1236 45.5489 20.1234L44.6852 19.7857L44.1068 21.4884C44.1018 21.5031 44.0882 21.5132 44.0726 21.5137C44.057 21.5141 44.0428 21.5049 44.0369 21.4904L43.4872 20.1346L41.7888 21.9909C41.7773 22.0034 41.7589 22.0067 41.7439 21.9988C41.7289 21.9909 41.7211 21.9739 41.7249 21.9573L42.1994 19.9047L40.8899 19.8889C40.8734 19.8887 40.8591 19.8778 40.8545 19.862C40.8499 19.8462 40.8562 19.8292 40.87 19.8203L42.4552 18.7916L41.4535 18.5764C41.4362 18.5727 41.4239 18.5573 41.424 18.5397C41.4242 18.522 41.4366 18.5068 41.454 18.5033L42.7486 18.2421C43.5018 17.3981 43.9027 16.9244 44.6817 15.9315C44.5566 15.9949 44.4094 16.0825 44.2438 16.188C44.0128 16.3351 43.7483 16.5154 43.461 16.7101C42.8869 17.0991 42.2227 17.5447 41.5613 17.8908C40.9008 18.2364 40.2377 18.4857 39.6665 18.4767C39.38 18.4722 39.1155 18.4027 38.8864 18.2469C38.6689 18.0989 38.4858 17.8748 38.3459 17.5601C35.3554 21.2496 32.2768 24.5978 28.5228 26.3267C24.7485 28.0649 20.2967 28.1643 14.5747 25.3435L14.5608 25.3518C14.7961 25.7955 14.8371 26.1613 14.8497 26.5518C14.8626 26.9509 14.8462 27.3726 14.9746 27.9374H14.9746C15.0821 28.4057 14.9527 29.0548 14.5658 29.5379C14.1775 30.0228 13.531 30.3391 12.6099 30.1433C11.937 30.1936 11.3708 29.9298 10.7315 29.6055C10.0914 29.2809 9.3742 28.8932 8.39071 28.6801C8.06609 28.805 7.68958 29.0722 7.39691 29.3028C7.24957 29.4189 7.12443 29.5249 7.03897 29.5974C6.99648 29.6335 6.96321 29.6618 6.9422 29.6787C6.93256 29.6865 6.92286 29.694 6.9158 29.6979C6.91423 29.6988 6.90985 29.7013 6.90419 29.7027C6.90159 29.7033 6.89477 29.7048 6.88637 29.7029C6.87565 29.7004 6.86468 29.6929 6.85956 29.6799C6.85559 29.6698 6.85706 29.6611 6.85773 29.6579C6.85856 29.654 6.85983 29.6509 6.86059 29.6493C6.86068 29.6491 6.86077 29.6489 6.86086 29.6487L7.04688 28.7708L5.17079 28.8186C5.15444 28.819 5.13972 28.8087 5.13448 28.7932C5.12925 28.7777 5.13471 28.7606 5.14795 28.751L6.44947 27.808L4.20287 26.9075C4.18703 26.9012 4.17751 26.8849 4.17975 26.868C4.18201 26.851 4.19546 26.8378 4.21241 26.8358L6.44911 26.5733L6.21833 25.3873C6.21535 25.3719 6.2222 25.3564 6.23552 25.3482C6.24884 25.3401 6.26583 25.3411 6.27808 25.3508L7.65497 26.4365L7.69321 25.4529C7.69388 25.4357 7.70615 25.4213 7.72294 25.4178C7.73972 25.4143 7.75671 25.4227 7.76414 25.4382L8.27971 26.5107C9.30983 26.905 9.88148 27.1101 11.0799 27.4802C10.6854 26.9998 9.96724 26.1946 9.34799 25.3231C9.0165 24.8566 8.71194 24.3692 8.49895 23.8997C8.29638 23.4531 8.17523 23.0194 8.19508 22.6335C8.18515 22.6286 8.17778 22.6196 8.17516 22.6086C8.09713 22.2833 8.01389 21.9593 7.92559 21.6366C6.91841 21.2542 6.07356 20.9667 5.35745 20.678C4.63596 20.3871 4.03952 20.0929 3.52871 19.6942C2.50568 18.8955 1.8332 17.6831 1.17309 15.2612L1.15091 15.1899C0.923907 14.4522 0.767797 13.7071 0.715784 13.0246C0.662136 12.3206 0.71899 11.6802 0.925584 11.1829C1.13286 10.684 1.4913 10.3288 2.037 10.2009C2.0545 10.1968 2.07219 10.193 2.09007 10.1893C2.62762 10.0746 3.33794 10.1773 4.24975 10.5615C5.92664 10.7235 6.99067 10.7778 7.69148 10.8149C8.04201 10.8334 8.3029 10.8477 8.50401 10.869C8.70499 10.8904 8.84935 10.919 8.96587 10.9677C9.20061 11.0657 9.31589 11.2431 9.55756 11.5695C9.78573 11.8776 10.1328 12.3293 10.8043 12.9992C10.7739 12.933 10.7346 12.862 10.691 12.7852C10.6084 12.6399 10.5125 12.4764 10.4463 12.2953C10.3798 12.1134 10.3424 11.9122 10.3772 11.6898C10.412 11.4673 10.5185 11.2269 10.7346 10.9657L10.7385 10.9616C10.918 10.8022 11.1643 10.6942 11.4475 10.6229C11.5407 10.5987 11.6381 10.5786 11.7385 10.562C12.1358 10.4964 12.5857 10.4854 13.027 10.4998C13.4686 10.5142 13.9029 10.5543 14.2693 10.5911C14.6098 10.6254 14.8892 10.6565 15.0633 10.6627C15.181 10.3971 15.1766 10.2384 15.1059 10.1426C15.0689 10.0925 15.0105 10.0545 14.93 10.0272C14.8494 9.99995 14.7491 9.98425 14.6317 9.97714C14.3966 9.96292 14.1009 9.98347 13.7733 10.0079C13.4468 10.0323 13.0898 10.0604 12.7357 10.0604C12.7189 10.0604 12.7041 10.0492 12.6997 10.0329C12.6953 10.0166 12.7023 9.99942 12.7169 9.99091L13.7151 9.40747L11.5923 8.86643C11.5746 8.8619 11.5627 8.84516 11.5644 8.82692C11.566 8.80868 11.5807 8.79432 11.5989 8.79303L14.4346 8.59401L14.2521 7.46623C14.2498 7.45204 14.2559 7.43778 14.2677 7.42959C14.2746 7.42481 14.2828 7.42263 14.2908 7.42304C14.3023 7.41652 14.3163 7.41642 14.3278 7.42304L15.2116 7.92973L15.5912 7.11983C15.5945 7.11237 15.6016 7.1022 15.6156 7.09781C15.6185 7.09689 15.6214 7.09645 15.6241 7.09621C15.6263 7.09497 15.6288 7.09382 15.6315 7.09296C15.6468 7.08819 15.6592 7.09401 15.6636 7.09645C15.673 7.10154 15.6803 7.10985 15.6844 7.11487C15.6945 7.127 15.7072 7.1459 15.7215 7.16914C15.7505 7.21638 15.7906 7.28818 15.8384 7.37754C15.9342 7.55654 16.0626 7.80859 16.1993 8.08163C16.47 8.62255 16.774 9.2472 16.9235 9.55272C18.2677 10.4725 19.0009 11.2196 19.3359 11.828C19.504 12.1334 19.5725 12.4051 19.5663 12.6467C19.5601 12.8885 19.4791 13.0975 19.3528 13.2772C19.1012 13.6352 18.6693 13.8779 18.2857 14.0414C18.0932 14.1234 17.9114 14.1861 17.7682 14.2336C17.6964 14.2574 17.6351 14.2772 17.5862 14.2939C17.5748 14.2978 17.5642 14.3015 17.5545 14.3049C17.9368 14.5228 18.2194 14.7179 18.4713 14.8934C18.7378 15.0791 18.9686 15.242 19.2477 15.3882C19.8044 15.68 20.5566 15.9075 22.1633 16.1046C22.8277 16.0425 23.4533 15.9665 24.0581 15.8631C25.2076 15.6644 26.2833 15.3666 27.4106 14.8755C29.1376 14.1232 30.9878 12.9165 33.4107 10.9149L33.5156 10.8181C32.851 10.6384 32.541 10.326 32.4764 9.93757C32.4108 9.54274 32.6027 9.085 32.8912 8.64013C33.1808 8.19345 33.5735 7.75133 33.9227 7.38519C34.0975 7.20203 34.2617 7.03747 34.397 6.90081C34.4815 6.81537 34.5543 6.74126 34.6113 6.68027C34.5432 6.70348 34.4565 6.73592 34.3548 6.77767C34.16 6.85768 33.9126 6.97079 33.6407 7.11517C33.0965 7.4041 32.4559 7.81739 31.9417 8.34015C31.934 8.34797 31.9236 8.35171 31.9132 8.35119C31.9011 8.35853 31.8855 8.35849 31.8732 8.35032C31.8583 8.3404 31.8526 8.32129 31.8595 8.3048L32.437 6.9329L30.5076 7.28234C30.4897 7.28558 30.472 7.27535 30.4659 7.25816C30.4597 7.24097 30.4669 7.22187 30.4829 7.213L32.1509 6.28661L30.1746 5.97831C30.1569 5.97555 30.1436 5.96056 30.1431 5.94263C30.1425 5.9247 30.1547 5.90888 30.1723 5.90499L32.6384 5.3566L31.2984 4.47543C31.2958 4.47375 31.2935 4.47174 31.2914 4.46948C31.2879 4.46569 31.2727 4.44746 31.2837 4.42415C31.2883 4.41436 31.2956 4.40891 31.3003 4.4062C31.3051 4.40343 31.3097 4.40198 31.3128 4.40118C31.3158 4.40043 31.3189 4.39986 31.3221 4.39948C31.3254 4.39808 31.3284 4.39724 31.3307 4.39669C31.3417 4.394 31.3558 4.39415 31.3684 4.39479C31.3959 4.39619 31.4373 4.4014 31.4891 4.40939C31.5933 4.42546 31.7451 4.45363 31.9246 4.4886C32.1043 4.5236 32.3123 4.56554 32.5293 4.60925C32.7167 4.647 32.9108 4.686 33.0992 4.72311C33.0143 4.48241 32.9561 4.28961 32.9205 4.13807C32.8817 3.97292 32.8687 3.85321 32.8792 3.77307C32.8844 3.73289 32.8961 3.69857 32.9172 3.67374C32.9364 3.6511 32.9612 3.63904 32.9886 3.6361C32.9989 3.6333 33.0096 3.63195 33.0206 3.63198C33.0516 3.63206 33.0842 3.64282 33.1164 3.65905C33.149 3.67548 33.1839 3.69889 33.2202 3.72738C33.3643 3.84074 33.5439 4.04609 33.7109 4.26829C33.8723 4.4831 34.0242 4.71663 34.1235 4.90381C36.2779 4.8625 37.5516 5.04756 38.2476 5.35274C38.5974 5.50613 38.8057 5.69185 38.9038 5.8989C39.0022 6.10671 38.9863 6.32905 38.9021 6.54806C38.7826 6.85937 38.5225 7.17103 38.2401 7.44206C43.4094 3.81494 47.8539 1.31221 52.8017 0.418375C53.8879 0.222156 54.9981 0.10355 56.1453 0.067479ZM71.6863 3.72612C62.9825 0.636115 56.3877 1.00159 51.0501 3.0623C45.6773 5.13656 41.5741 8.9298 37.8733 12.658C36.0236 14.5214 34.2734 16.3695 32.5171 17.9757C30.7606 19.5822 28.9955 20.9491 27.114 21.8503C25.2318 22.7518 23.2333 23.1872 21.0108 22.9309C18.7897 22.6747 16.3475 21.728 13.5765 19.8696C12.7975 19.5453 12.0019 19.2169 11.1941 18.8762C10.8216 18.7595 10.493 18.5614 10.2594 18.3219C10.0258 18.0824 9.8846 17.7985 9.89526 17.5117L9.89575 17.507C9.89601 17.5054 9.89637 17.5039 9.89682 17.5024C10.0922 16.8492 10.2879 16.2007 10.4832 15.5443C9.98018 14.7691 9.21428 14.4171 8.49011 14.1848C7.69301 14.6561 7.06196 14.8438 6.56809 14.8277C6.27241 15.1018 6.09817 15.3098 5.99659 15.4486C5.94518 15.5188 5.91225 15.5715 5.89147 15.6063C5.88202 15.6222 5.87267 15.6385 5.86796 15.6463C5.86536 15.6506 5.86235 15.6554 5.85938 15.6593C5.85806 15.6611 5.85527 15.6646 5.85127 15.6679C5.84947 15.6693 5.83515 15.6813 5.81525 15.6751C5.79508 15.6689 5.79013 15.6506 5.78948 15.6482C5.78808 15.6432 5.78789 15.6387 5.78782 15.6365C5.78766 15.6317 5.78802 15.6262 5.78838 15.6214C5.78932 15.6091 5.79045 15.5986 5.79191 15.5782C5.79456 15.5412 5.79695 15.4857 5.79284 15.4111C5.78482 15.2656 5.75206 15.0465 5.64752 14.7507C5.34029 14.7216 5.05178 14.5901 4.82831 14.3772C4.6241 14.465 4.43849 14.525 4.28407 14.5522C4.12621 14.58 3.99223 14.5754 3.90627 14.5215C3.86167 14.4936 3.83098 14.4529 3.81769 14.4003C3.80467 14.3488 3.80895 14.2884 3.82849 14.2205C3.8661 14.0897 3.96319 13.921 4.12805 13.7113C3.926 13.4329 3.74796 13.1184 3.57187 12.7915C3.3915 12.4567 3.21326 12.1093 3.01174 11.7705C2.29192 11.1639 1.74835 11.083 1.38562 11.3095C1.0173 11.5395 0.811398 12.0989 0.80128 12.8281C0.801083 12.8423 0.79275 12.855 0.780097 12.8611C0.78285 12.9133 0.786166 12.9659 0.790207 13.0189C0.843367 13.7165 1.00655 14.482 1.24429 15.2389C1.24443 15.2393 1.24456 15.2398 1.24469 15.2402C1.90366 17.6584 2.57084 18.8517 3.57467 19.6353C4.07738 20.0278 4.6663 20.3189 5.38535 20.6088C6.10555 20.8991 6.95067 21.1862 7.96988 21.5736C7.98102 21.5778 7.98948 21.5871 7.99263 21.5986C8.07854 21.9118 8.15956 22.2263 8.23581 22.5419C8.24183 22.5419 8.24791 22.5432 8.25347 22.5461C8.26686 22.5531 8.2747 22.5675 8.27336 22.5825C8.23919 22.9639 8.35642 23.4048 8.56692 23.8688C8.77715 24.3323 9.07872 24.8153 9.40882 25.2799C10.0698 26.2101 10.8394 27.059 11.2155 27.5288C11.2258 27.5416 11.2265 27.5596 11.2173 27.5731C11.2081 27.5867 11.1911 27.5926 11.1754 27.5878C9.88847 27.1923 9.31264 26.9862 8.23921 26.5752C8.2303 26.5718 8.22302 26.5651 8.21889 26.5565L7.76194 25.6059L7.72673 26.5126C7.72618 26.5267 7.71779 26.5392 7.70505 26.5451C7.6923 26.5509 7.67736 26.5492 7.66634 26.5405L6.31077 25.4717L6.53008 26.5986C6.53206 26.6088 6.52972 26.6193 6.5236 26.6277C6.51747 26.6361 6.50811 26.6416 6.49779 26.6428L4.36681 26.8928L6.54003 27.764C6.55264 27.769 6.5615 27.7805 6.56317 27.794C6.56483 27.8075 6.55904 27.8208 6.54804 27.8288L5.28918 28.7409L7.09224 28.6949C7.10366 28.6946 7.1146 28.6996 7.1219 28.7084C7.12921 28.7171 7.13208 28.7288 7.12972 28.74L6.95341 29.5721C6.96472 29.5625 6.97717 29.552 6.99065 29.5405C7.0762 29.4679 7.20223 29.3611 7.35072 29.2442C7.6467 29.011 8.03586 28.734 8.37452 28.6063L8.37964 28.6048C8.38485 28.6037 8.39028 28.6037 8.39553 28.6048C9.39562 28.8197 10.1243 29.2138 10.7652 29.539C11.4075 29.8647 11.9577 30.1189 12.6096 30.0686L12.615 30.0685C12.6168 30.0686 12.6186 30.0689 12.6203 30.0693C13.5169 30.2615 14.1364 29.9548 14.5076 29.4913C14.8809 29.0251 15.004 28.399 14.9018 27.954V27.9539C14.7714 27.3802 14.7879 26.9488 14.7751 26.5542C14.7624 26.1602 14.7209 25.7995 14.4784 25.3561C14.4688 25.3385 14.4747 25.3165 14.4919 25.3061L14.5537 25.2691L14.5579 25.2669C14.568 25.2625 14.5795 25.2627 14.5895 25.2676C20.3036 28.0894 24.7371 27.988 28.4916 26.2589C32.2492 24.5283 35.3319 21.1652 38.3382 17.4511C38.3509 17.4354 38.374 17.4327 38.39 17.4451C38.4053 17.457 38.4089 17.4784 38.3987 17.4945C38.5361 17.8179 38.7166 18.0411 38.9284 18.1851C39.1432 18.3312 39.3927 18.3977 39.6676 18.4021C40.2193 18.4108 40.8685 18.1691 41.5266 17.8247C42.1838 17.4808 42.8447 17.0375 43.4191 16.6483C43.706 16.4539 43.9716 16.2729 44.2037 16.125C44.4354 15.9775 44.6359 15.8615 44.7924 15.7984C44.8081 15.7921 44.8261 15.7971 44.8362 15.8106C44.8464 15.8241 44.8462 15.8427 44.8358 15.856C43.9891 16.9382 43.5858 17.4163 42.796 18.3011C42.7907 18.3071 42.7835 18.3112 42.7756 18.3128L41.6444 18.541L42.5587 18.7374C42.5735 18.7406 42.5849 18.7524 42.5876 18.7672C42.5903 18.782 42.5839 18.797 42.5712 18.8053L41.0141 19.8157L42.2466 19.8306C42.2579 19.8307 42.2685 19.836 42.2755 19.8449C42.2825 19.8538 42.2851 19.8653 42.2825 19.8763L41.8295 21.8358L43.472 20.0406L43.4755 20.0373C43.4839 20.0301 43.4952 20.0271 43.5062 20.029C43.5188 20.0313 43.5293 20.0399 43.5341 20.0517L44.0684 21.3694L44.6271 19.7247C44.6304 19.7151 44.6375 19.7072 44.6467 19.7029C44.6559 19.6986 44.6665 19.6983 44.676 19.702L45.4982 20.0234C45.4919 20.0112 45.4849 19.9977 45.4773 19.983C45.4302 19.8922 45.3609 19.7586 45.2884 19.6028C45.1439 19.2926 44.9839 18.8891 44.9626 18.5586C44.9621 18.5506 44.9642 18.5426 44.9686 18.5358C45.5282 17.6778 46.1833 17.0989 46.7369 16.5849C47.2923 16.0693 47.7411 15.6226 47.9061 15.0255L47.9081 15.0201C47.9089 15.0183 47.9098 15.0166 47.9108 15.015C48.1615 14.6303 48.257 14.2859 48.2466 13.9867C48.2363 13.6877 48.1201 13.4306 47.9412 13.2202C47.5877 12.8044 46.9907 12.5733 46.4954 12.572L46.4719 12.5721C46.1581 12.5761 45.7446 12.6609 45.2927 12.7725C44.8434 12.8834 44.3538 13.0216 43.8984 13.1284C43.4423 13.2353 43.0123 13.313 42.676 13.3031C42.3516 13.2935 42.0977 13.2013 42.0051 12.9563L41.9841 12.9544C41.9708 12.9533 41.9591 12.9451 41.9535 12.9329C41.9479 12.9208 41.9492 12.9066 41.9569 12.8957C45.2837 8.19937 48.7848 5.01012 53.4605 3.46275C58.1124 1.92326 63.9215 2.01087 71.8691 3.8464L71.8521 3.81168C71.7968 3.78297 71.7415 3.75447 71.6863 3.72612ZM13.3098 28.1991C13.4661 28.0737 13.6557 28.0874 13.8127 28.1707C13.9645 28.2513 14.0919 28.3994 14.1397 28.5626L14.144 28.5784L14.1449 28.5825C14.145 28.5839 14.1451 28.5852 14.1452 28.5866C14.1547 28.8853 14.0652 29.1109 13.9215 29.2729C13.7783 29.4342 13.5837 29.53 13.3869 29.5744C13.1902 29.6189 12.9887 29.6127 12.829 29.5678C12.6722 29.5236 12.5426 29.4377 12.5142 29.3119C12.5137 29.3096 12.5134 29.3073 12.5133 29.3049C12.5067 29.1022 12.6215 28.8805 12.7762 28.6851C12.9314 28.4889 13.1321 28.3127 13.3098 28.1991ZM13.7777 28.2367C13.6385 28.1628 13.482 28.1556 13.355 28.2586C13.3539 28.2595 13.3527 28.2603 13.3515 28.2611C13.1803 28.3702 12.9851 28.5413 12.8347 28.7314C12.6843 28.9214 12.5837 29.124 12.5879 29.2989C12.6085 29.3813 12.7013 29.4543 12.8492 29.4959C12.9961 29.5373 13.1849 29.5435 13.3704 29.5016C13.5557 29.4597 13.7351 29.3704 13.8656 29.2233C13.995 29.0775 14.0787 28.8724 14.0707 28.5932C14.0314 28.4474 13.9165 28.3103 13.7777 28.2367ZM18.1484 23.1048C18.5669 22.9131 18.9592 22.9882 19.3017 23.195C19.6377 23.398 19.9275 23.7283 20.1534 24.0607C20.827 24.1219 21.3686 24.193 21.7391 24.3201C21.9261 24.3843 22.0732 24.4639 22.1716 24.5668C22.2714 24.6711 22.3195 24.7977 22.3108 24.9499C22.3105 24.9553 22.309 24.9606 22.3064 24.9654C21.8747 25.7715 21.3651 26.1574 20.8463 26.2513C20.3285 26.3451 19.8119 26.1459 19.3699 25.8047C18.9276 25.4632 18.5556 24.9765 18.3249 24.4856C18.0949 23.9962 18.0017 23.4948 18.1287 23.1266L18.1301 23.1231C18.1339 23.115 18.1403 23.1086 18.1484 23.1048ZM19.2631 23.2589C18.9408 23.0643 18.5798 22.9952 18.1942 23.1661C18.0841 23.5059 18.1689 23.9782 18.3925 24.4538C18.6186 24.9351 18.9834 25.412 19.4155 25.7456C19.8478 26.0793 20.3432 26.2665 20.833 26.1779C21.3204 26.0896 21.8124 25.7263 22.2367 24.9375C22.2421 24.8096 22.2013 24.7058 22.1177 24.6184C22.031 24.5277 21.8966 24.4531 21.7149 24.3907C21.351 24.2659 20.8119 24.1951 20.1291 24.1334C20.1179 24.1324 20.1078 24.1264 20.1015 24.1171C19.877 23.784 19.5909 23.4569 19.2631 23.2589ZM26.3919 23.0644C26.8276 23.0031 27.1462 23.2172 27.3184 23.5311C27.4897 23.8437 27.5172 24.2565 27.375 24.6003C27.374 24.6028 27.3727 24.6052 27.3711 24.6074C26.602 25.7045 25.5198 25.8377 24.6818 25.5855C24.2636 25.4597 23.9046 25.2376 23.6743 24.99C23.4457 24.7443 23.3354 24.4628 23.4435 24.2248C23.4445 24.2226 23.4457 24.2205 23.4471 24.2185C23.7049 23.8573 24.2062 23.5796 24.7561 23.3873C25.307 23.1946 25.9139 23.0851 26.3919 23.0644ZM27.2529 23.567C27.0933 23.276 26.8021 23.0813 26.4003 23.1386C26.399 23.1388 26.3978 23.1389 26.3966 23.139C25.9257 23.1591 25.3254 23.2673 24.7808 23.4578C24.2363 23.6482 23.7546 23.9185 23.5099 24.259C23.4235 24.4544 23.5083 24.702 23.7289 24.9392C23.949 25.1758 24.296 25.3915 24.7033 25.514C25.5153 25.7583 26.5602 25.631 27.3075 24.5681C27.4392 24.2461 27.4129 23.8588 27.2529 23.567ZM8.95716 22.7011C8.96644 22.6919 8.97987 22.6882 8.99254 22.6914C9.29708 22.7678 9.54194 22.9675 9.73461 23.212C9.92467 23.4532 10.0657 23.7403 10.1648 24.0026C10.5981 24.31 10.9433 24.5687 11.1675 24.7854C11.2803 24.8944 11.3646 24.9948 11.4138 25.0873C11.4631 25.1801 11.4793 25.2695 11.4473 25.3521C11.4443 25.36 11.4386 25.3666 11.4312 25.3709C11.0182 25.6098 10.6194 25.5955 10.2647 25.4307C9.9119 25.2667 9.60409 24.9547 9.36559 24.5998C9.12689 24.2446 8.95543 23.8433 8.87702 23.4964C8.83783 23.323 8.82154 23.1618 8.83256 23.0259C8.84351 22.8908 8.88192 22.7758 8.95716 22.7011ZM8.9957 22.7694C8.94676 22.8272 8.91635 22.916 8.90695 23.0319C8.89673 23.158 8.91168 23.3113 8.94981 23.48C9.02605 23.8172 9.19362 24.2101 9.42754 24.5582C9.66165 24.9065 9.96005 25.2067 10.2962 25.363C10.627 25.5167 10.9956 25.5319 11.3818 25.3132C11.3977 25.2606 11.3883 25.1985 11.3479 25.1224C11.3041 25.04 11.2263 24.946 11.1156 24.8391C10.8945 24.6253 10.5505 24.3676 10.1124 24.0569C10.1063 24.0526 10.1016 24.0466 10.099 24.0396C10.0013 23.7788 9.86233 23.4947 9.67598 23.2582C9.4943 23.0276 9.26933 22.8444 8.9957 22.7694ZM14.0035 21.2382C14.4564 21.1659 14.8015 21.3459 15.0583 21.6404C15.3099 21.9289 15.4779 22.328 15.5856 22.7116C16.1953 22.9513 16.6794 23.1657 16.9866 23.3893C17.1419 23.5024 17.2552 23.62 17.3157 23.7476C17.377 23.8768 17.3827 24.0133 17.328 24.1593C17.3262 24.1641 17.3234 24.1685 17.3198 24.1722C16.6661 24.8439 16.0699 25.0848 15.5549 25.0377C15.0403 24.9906 14.6183 24.6569 14.3105 24.2046C14.0026 23.752 13.8059 23.1764 13.7423 22.6345C13.6789 22.094 13.7473 21.5792 13.979 21.2534L13.9813 21.2505C13.987 21.2439 13.9949 21.2395 14.0035 21.2382ZM15.002 21.6894C14.7615 21.4136 14.4456 21.2486 14.0308 21.3095C13.8218 21.6142 13.7548 22.1003 13.8164 22.6258C13.8788 23.1573 14.0719 23.7212 14.3722 24.1626C14.6727 24.6042 15.0772 24.919 15.5617 24.9634C16.0445 25.0075 16.618 24.7841 17.2607 24.1258C17.3058 24.0008 17.2995 23.8876 17.2483 23.7796C17.1953 23.6679 17.0931 23.5591 16.9427 23.4496C16.6415 23.2303 16.1599 23.0172 15.5411 22.7743C15.5302 22.77 15.5219 22.7608 15.5188 22.7494C15.4125 22.3652 15.2469 21.9703 15.002 21.6894ZM30.6508 20.3733C30.9757 20.2064 31.307 20.3284 31.5554 20.5702C31.8041 20.8123 31.978 21.181 31.993 21.5282C31.9932 21.5308 31.993 21.5334 31.9926 21.5359C31.8948 22.1298 31.6465 22.5267 31.3254 22.7714C31.0048 23.0157 30.6156 23.1054 30.2404 23.0924C29.8655 23.0793 29.5022 22.9636 29.2309 22.7939C28.9616 22.6254 28.7741 22.3973 28.7708 22.1562C28.7708 22.1539 28.771 22.1516 28.7714 22.1493C28.8391 21.7541 29.1293 21.3757 29.489 21.0651C29.8487 20.7543 30.2832 20.5067 30.6508 20.3733ZM31.5033 20.6236C31.2677 20.3942 30.9694 20.2923 30.6829 20.4408C30.6814 20.4415 30.6799 20.4422 30.6784 20.4427C30.3191 20.5727 29.8914 20.816 29.5377 21.1216C29.1844 21.4268 28.9102 21.7895 28.8456 22.1583C28.8499 22.3602 29.0102 22.5678 29.2705 22.7307C29.5303 22.8932 29.8808 23.0052 30.243 23.0178C30.605 23.0303 30.9762 22.9436 31.2802 22.712C31.5829 22.4813 31.8226 22.1039 31.9183 21.5277C31.903 21.2017 31.7384 20.8524 31.5033 20.6236ZM11.5048 19.3952C11.7338 19.4082 11.9836 19.5329 12.2333 19.7365C12.2358 19.7386 12.238 19.7409 12.2399 19.7435C12.4605 20.0478 12.6627 20.4909 12.7952 21.0231C12.8937 21.2269 12.9967 21.3992 13.0866 21.5565C13.1764 21.7136 13.2537 21.857 13.2962 21.9986C13.3391 22.1416 13.3467 22.2835 13.2973 22.4374C13.2482 22.5903 13.1438 22.7521 12.9682 22.9374C12.9616 22.9444 12.9526 22.9485 12.943 22.949C12.6859 22.9623 12.3866 22.8372 12.0911 22.6143C11.7947 22.3907 11.4979 22.0654 11.245 21.6696C11.2439 21.6678 11.2429 21.6659 11.2421 21.6639C10.9609 20.9931 10.9256 20.5281 11.0098 20.179C11.094 19.83 11.2964 19.6028 11.4751 19.4073L11.478 19.4044C11.4854 19.398 11.4949 19.3946 11.5048 19.3952ZM70.8712 3.31846C65.0353 0.985236 60.3416 0.0103667 56.1484 0.142068C55.2017 0.212424 54.2678 0.336953 53.3445 0.511387C47.7224 1.5736 42.4922 4.48811 37.1638 8.31205C37.1549 8.31847 37.1435 8.32062 37.1328 8.3179C37.1326 8.31784 37.1324 8.31773 37.1322 8.31767C37.1256 8.31977 37.1185 8.32008 37.1116 8.31833C37.101 8.31561 37.092 8.3083 37.0872 8.29838L37.0753 8.27364C37.067 8.25643 37.0731 8.23573 37.0893 8.22569L37.0975 8.23892L37.0975 8.23889C37.0893 8.22566 37.0893 8.22567 37.0894 8.22565C37.0894 8.22563 37.0894 8.2256 37.0895 8.22555C37.0897 8.22546 37.0899 8.22529 37.0903 8.22509C37.0909 8.22468 37.0919 8.22408 37.0932 8.22326C37.0958 8.22162 37.0998 8.21916 37.1049 8.21591C37.1152 8.20939 37.1304 8.19968 37.1499 8.18701C37.1889 8.16168 37.245 8.12449 37.3134 8.07721C37.4502 7.98261 37.636 7.84771 37.8319 7.68644C38.2255 7.36242 38.6531 6.93727 38.8129 6.52225C38.8922 6.3162 38.9042 6.11624 38.8171 5.93239C38.7296 5.74778 38.539 5.57245 38.1983 5.4234C37.5157 5.12478 36.2491 4.93957 34.0809 4.98372C34.0666 4.98401 34.0533 4.9761 34.0468 4.96337C33.9515 4.77653 33.7976 4.53667 33.6324 4.31598C33.4668 4.09474 33.2922 3.89593 33.156 3.78904C33.1221 3.76247 33.0915 3.74229 33.0648 3.72891C33.0382 3.71561 33.0178 3.71026 33.0031 3.71006C32.9991 3.71201 32.9957 3.71478 32.9926 3.7184C32.9847 3.72777 32.9763 3.7459 32.9721 3.77876C32.9637 3.84474 32.9742 3.95333 33.013 4.11665C33.0515 4.27892 33.1171 4.49178 33.216 4.76454C33.2206 4.77718 33.218 4.79131 33.2092 4.80152C33.2013 4.81074 33.1895 4.81539 33.1776 4.81432C33.17 4.81848 33.1611 4.82001 33.1523 4.81825C32.7227 4.73184 32.2507 4.6342 31.8919 4.56479C31.7241 4.53233 31.5817 4.50621 31.4802 4.49026L32.7739 5.3423C32.7864 5.35054 32.7928 5.36547 32.7901 5.38021C32.7874 5.39495 32.7761 5.40665 32.7615 5.4099L30.4034 5.93432L32.2909 6.22519C32.3067 6.22763 32.3192 6.23981 32.322 6.25552C32.3248 6.27123 32.3173 6.28699 32.3033 6.29473L30.7343 7.16369L32.5127 6.84189C32.5261 6.83945 32.5399 6.84458 32.5484 6.85526C32.557 6.86594 32.559 6.88048 32.5537 6.8931L32.0316 8.13354C32.5224 7.67678 33.0947 7.31349 33.5867 7.05265C33.8608 6.90731 34.1104 6.79355 34.3078 6.71293C34.4705 6.64646 34.5992 6.60187 34.6771 6.58108C34.7005 6.57434 34.72 6.56943 34.7353 6.56641C34.7508 6.56336 34.7665 6.57034 34.7746 6.58387C34.7827 6.5974 34.7814 6.61456 34.7714 6.62673C34.7099 6.70138 34.6018 6.81218 34.467 6.9486C34.3316 7.08563 34.1681 7.24969 33.9942 7.43238C33.6461 7.79795 33.2578 8.2364 32.9723 8.67734C32.6857 9.12011 32.5083 9.55707 32.5689 9.92217C32.6284 10.2809 32.9215 10.5859 33.6174 10.758C33.6307 10.7613 33.6412 10.7717 33.6446 10.785C33.648 10.7983 33.6438 10.8124 33.6337 10.8217L33.4774 10.9657C33.4769 10.9661 33.4764 10.9666 33.4758 10.967C31.0516 12.9714 29.1961 14.1843 27.4599 14.9411C26.3186 15.4386 25.2298 15.7387 24.0662 15.9374C23.4542 16.043 22.8217 16.1206 22.1503 16.1842C22.1476 16.1844 22.1449 16.1844 22.1422 16.1841C20.5298 15.9865 19.7663 15.7575 19.1968 15.4594C18.9126 15.3105 18.6775 15.1449 18.4112 14.9597C18.1448 14.7744 17.8457 14.5685 17.4312 14.337C17.4193 14.3304 17.412 14.3178 17.4121 14.3042C17.4122 14.2905 17.4197 14.278 17.4317 14.2716C17.455 14.2591 17.4945 14.2447 17.5431 14.2282C17.5925 14.2114 17.6553 14.1912 17.7263 14.1677C17.8692 14.1204 18.0491 14.0583 18.239 13.9774C18.6201 13.8149 19.0359 13.5785 19.275 13.238C19.3939 13.0686 19.469 12.8735 19.4747 12.6481C19.4803 12.4225 19.4164 12.1638 19.2529 11.8674C18.9253 11.2734 18.2007 10.5329 16.8534 9.61364C16.848 9.60996 16.8436 9.60493 16.8408 9.59904C16.6948 9.29677 16.3887 8.66563 16.1161 8.11987C15.9797 7.84694 15.8519 7.59566 15.7566 7.41761C15.7095 7.32955 15.6707 7.26005 15.643 7.2148L15.2759 8.00595C15.2715 8.01543 15.2633 8.02263 15.2534 8.0258C15.2492 8.02711 15.2449 8.02762 15.2407 8.02746C15.2384 8.02877 15.236 8.02988 15.2334 8.03069C15.2235 8.03383 15.2127 8.03265 15.2036 8.02746L14.3612 7.54465L14.5312 8.62171C14.5328 8.63204 14.5301 8.64259 14.5235 8.65077C14.517 8.65896 14.5074 8.66404 14.4969 8.66477L11.8532 8.85026L13.8419 9.3523C13.8566 9.35601 13.8676 9.36825 13.8697 9.38326C13.8718 9.39826 13.8647 9.41306 13.8516 9.4207L12.8956 9.9795C13.1992 9.97445 13.5025 9.95141 13.7858 9.93075C14.1114 9.90701 14.412 9.88632 14.6528 9.90119C14.7733 9.90863 14.8809 9.92509 14.9702 9.95543C15.0596 9.9858 15.133 10.0309 15.1819 10.0973C15.281 10.2316 15.2667 10.433 15.1364 10.7166C15.1303 10.7301 15.1168 10.7386 15.102 10.7384C15.0997 10.7384 15.0973 10.7383 15.095 10.7382C15.0922 10.7389 15.0893 10.7393 15.0863 10.7393C14.9115 10.7381 14.6091 10.7049 14.2439 10.6688C13.8773 10.6326 13.4446 10.5932 13.0054 10.5791C12.566 10.565 12.1214 10.5762 11.7309 10.6407C11.6385 10.656 11.5493 10.6742 11.4641 10.6957C11.1987 10.7649 10.9733 10.8665 10.81 11.0107C10.6021 11.2627 10.5031 11.4905 10.4708 11.697C10.4385 11.9042 10.4728 12.0929 10.5363 12.2668C10.6 12.4415 10.6923 12.5996 10.7758 12.7471C10.858 12.8922 10.9337 13.0303 10.9556 13.1583C10.9583 13.1743 10.9504 13.1901 10.9361 13.1976C10.9278 13.202 10.9184 13.2028 10.9097 13.2007C10.8969 13.2046 10.8827 13.2013 10.8728 13.1917C10.1057 12.4425 9.72485 11.9474 9.48005 11.6162C9.23333 11.2825 9.13176 11.1273 8.92091 11.0391C8.81466 10.9947 8.67904 10.9669 8.48033 10.9458C8.28173 10.9248 8.02313 10.9106 7.67196 10.8922C6.97013 10.8552 5.90329 10.8012 4.22159 10.6397C4.21783 10.6394 4.21413 10.6384 4.21065 10.637C3.32049 10.2612 2.63543 10.1599 2.12127 10.2593C1.86323 10.312 1.64863 10.4158 1.47288 10.5611C1.07259 10.892 0.864251 11.4452 0.806967 12.1264C0.902368 11.7234 1.08224 11.411 1.34608 11.2462C1.74676 10.996 2.31795 11.0985 3.0307 11.689L3.06475 11.7175L3.06701 11.7196C3.0692 11.7218 3.07111 11.7242 3.0727 11.7269C3.27662 12.0692 3.4572 12.4213 3.63758 12.7561C3.81833 13.0917 3.99917 13.4106 4.20486 13.6901C4.21485 13.7037 4.21448 13.7223 4.20396 13.7355C4.03023 13.9533 3.93504 14.1201 3.90022 14.2411C3.88289 14.3013 3.88134 14.3475 3.89005 14.382C3.89848 14.4154 3.91707 14.4402 3.94591 14.4583C4.00686 14.4965 4.11639 14.506 4.2711 14.4787C4.4235 14.4518 4.61138 14.3908 4.82142 14.299L4.82678 14.2971C4.83942 14.2937 4.85312 14.2972 4.86263 14.3066C5.07488 14.5163 5.35247 14.6465 5.64878 14.6759L5.67752 14.6784L5.68287 14.6793C5.69516 14.682 5.70538 14.6909 5.70974 14.703C5.82299 15.0167 5.85873 15.2504 5.86736 15.407C5.8693 15.4421 5.86981 15.4733 5.86959 15.5005C5.88759 15.4731 5.9096 15.4411 5.93637 15.4045C6.04237 15.2597 6.223 15.0446 6.52865 14.7624L6.53148 14.7601C6.53835 14.7549 6.54685 14.7522 6.55552 14.7526C7.03416 14.7724 7.66009 14.5913 8.46666 14.1121L8.47019 14.1102C8.47859 14.1064 8.48817 14.1058 8.49706 14.1086C9.2354 14.3439 10.0346 14.7051 10.5553 15.5183C10.5612 15.5275 10.5628 15.5387 10.5597 15.5491C10.3632 16.2095 10.1662 16.8622 9.96974 17.5189C9.96171 17.7774 10.0895 18.0408 10.3128 18.2698C10.5301 18.4926 10.8354 18.68 11.184 18.7946L11.2179 18.8055L11.2212 18.8067C11.8283 19.0627 12.4284 19.3118 13.0199 19.5574L13.6086 19.8021L13.6119 19.8037C13.613 19.8042 13.614 19.8049 13.615 19.8056C16.3804 21.6607 18.8123 22.6022 21.0194 22.8568C23.226 23.1112 25.2104 22.6793 27.0817 21.783C28.9536 20.8864 30.7124 19.5251 32.4667 17.9207C34.2212 16.316 35.9688 14.4706 37.8203 12.6054C41.5217 8.87666 45.6345 5.0731 51.0232 2.99267C56.2709 0.966688 62.7247 0.576285 71.1817 3.47119C71.078 3.41965 70.9745 3.36873 70.8712 3.31846ZM11.518 19.4709C11.343 19.6628 11.1598 19.8753 11.0824 20.1965C11.0033 20.5244 11.0333 20.9717 11.3096 21.632C11.5581 22.0203 11.8485 22.3378 12.1361 22.5547C12.4191 22.7683 12.6953 22.8815 12.9243 22.875C13.0893 22.699 13.1827 22.5501 13.2262 22.4146C13.2703 22.2774 13.264 22.1512 13.2247 22.0201C13.185 21.8877 13.1118 21.7511 13.0218 21.5935C12.9323 21.4368 12.8268 21.2605 12.7264 21.0523C12.7253 21.05 12.7244 21.0475 12.7238 21.045C12.5936 20.5205 12.3955 20.0868 12.1822 19.7912C11.9464 19.5996 11.7191 19.4878 11.518 19.4709ZM24.1467 16.762C24.4062 16.6689 24.6512 16.6295 24.8611 16.6612L24.8813 16.6645L24.8847 16.6653C24.8859 16.6656 24.887 16.666 24.8881 16.6664C25.5424 16.9149 25.9537 17.5354 26.1741 18.2533C26.3945 18.971 26.4266 19.7931 26.3174 20.46C26.3112 20.7563 26.1757 21.0305 25.9596 21.2708C25.7429 21.5119 25.4438 21.7208 25.107 21.887C24.4341 22.2191 23.6026 22.3847 22.9584 22.2906C22.9558 22.2902 22.9533 22.2896 22.9508 22.2887C21.9596 21.9197 21.4727 21.3636 21.3356 20.7359C21.199 20.1109 21.4117 19.4255 21.7961 18.8009C22.1809 18.1757 22.7408 17.6062 23.3082 17.2109C23.5919 17.0132 23.8784 16.8584 24.1467 16.762ZM24.8649 16.7375C24.6688 16.704 24.4315 16.7391 24.1719 16.8323C23.9112 16.9259 23.6306 17.0772 23.3509 17.2721C22.7913 17.6621 22.2387 18.2242 21.8597 18.84C21.4803 19.4565 21.2777 20.1217 21.4085 20.72C21.5385 21.315 22.0005 21.8543 22.9732 22.2173C23.5987 22.3075 24.4129 22.1463 25.074 21.82C25.4049 21.6567 25.6955 21.453 25.9041 21.2209C26.1127 20.9889 26.2378 20.7303 26.2428 20.4559C26.2429 20.4541 26.243 20.4523 26.2433 20.4506C26.3513 19.7935 26.3197 18.9819 26.1028 18.2753C25.886 17.5693 25.4868 16.9752 24.8649 16.7375ZM20.1537 17.3189C20.8205 17.0124 21.4872 16.8592 21.9635 16.9603L21.986 16.9653L21.9902 16.9665C21.9996 16.9698 22.0074 16.9769 22.0116 16.9861C22.227 17.4579 22.0861 17.9198 21.7791 18.3325C21.4755 18.7405 21.0058 19.1062 20.5401 19.3979C20.3933 20.1857 20.2463 20.822 20.0404 21.2639C19.8327 21.7098 19.56 21.9678 19.1592 21.9744C19.1542 21.9744 19.1492 21.9735 19.1445 21.9716C18.1031 21.5466 17.6306 20.9915 17.5528 20.3968C17.4753 19.8048 17.7915 19.1894 18.2892 18.6481C18.788 18.1057 19.4747 17.631 20.1537 17.3189ZM21.9511 17.0339C21.4988 16.9367 20.849 17.0814 20.1849 17.3867C19.5136 17.6953 18.8353 18.1645 18.3442 18.6986C17.8521 19.2338 17.5536 19.8277 17.6268 20.387C17.6994 20.9423 18.1409 21.4797 19.1655 21.8995C19.5208 21.8906 19.7719 21.6636 19.9728 21.2324C20.1755 20.7972 20.3218 20.1642 20.4698 19.3682C20.4717 19.3579 20.4779 19.3489 20.4868 19.3434C20.9538 19.0522 21.4208 18.6891 21.7193 18.288C22.0135 17.8925 22.1401 17.4658 21.9511 17.0339ZM17.2653 16.6793C17.8513 16.5798 18.4001 16.6044 18.7333 16.7961C18.7436 16.8021 18.7505 16.8125 18.7518 16.8243C18.7991 17.2454 18.5779 17.5798 18.244 17.8387C17.9144 18.0942 17.4701 18.2804 17.0472 18.4102C16.7404 18.9958 16.4717 19.4637 16.2075 19.767C15.9411 20.0728 15.6705 20.2207 15.364 20.1389C15.3589 20.1376 15.3541 20.1351 15.3499 20.1317C14.6713 19.5728 14.4525 19.0323 14.5425 18.545C14.6319 18.0611 15.0237 17.6443 15.5326 17.3251C16.0427 17.0052 16.6773 16.779 17.2653 16.6793ZM18.6796 16.8516C18.3677 16.6816 17.8492 16.6559 17.2778 16.7528C16.6983 16.8512 16.0732 17.0742 15.5723 17.3883C15.0703 17.7031 14.6997 18.1051 14.6159 18.5586C14.533 19.0074 14.7289 19.5211 15.391 20.0688C15.6531 20.135 15.8941 20.013 16.1512 19.718C16.4109 19.4199 16.6782 18.9547 16.9884 18.3618L16.9903 18.3586C16.995 18.3513 17.0022 18.346 17.0106 18.3434C17.4343 18.2146 17.8753 18.0301 18.1983 17.7797C18.5157 17.5336 18.7143 17.2282 18.6796 16.8516ZM45.5928 20.0633C45.5928 20.0632 45.5928 20.0632 45.5927 20.0631C45.5926 20.063 45.5925 20.0629 45.5922 20.0627C45.5922 20.0627 45.5921 20.0626 45.5921 20.0626C45.5923 20.0628 45.5926 20.063 45.5928 20.0633ZM1.38735 14.2101C1.39847 14.2072 1.41043 14.2095 1.41967 14.2167C2.01064 14.6744 2.40779 15.1732 2.75592 15.6807C3.10507 16.1897 3.40164 16.7018 3.79697 17.197C4.58332 18.1819 5.75559 19.0912 8.47331 19.68C8.48878 19.6833 8.50046 19.6961 8.50244 19.7118C8.50442 19.7275 8.49625 19.7427 8.48209 19.7498L8.45735 19.7622C8.45064 19.7655 8.44307 19.7668 8.43564 19.7658C6.88267 19.5535 5.80648 19.2189 5.02933 18.8064C4.25143 18.3935 3.77454 17.9034 3.41934 17.3827C3.06596 16.8648 2.83098 16.3124 2.54269 15.7858C2.25328 15.2571 1.90664 14.7462 1.32453 14.296C1.31399 14.2879 1.30861 14.2747 1.3104 14.2615C1.31219 14.2483 1.32086 14.237 1.33318 14.232L1.38266 14.2116L1.38735 14.2101ZM2.03687 14.8842C2.26621 15.1633 2.44651 15.4546 2.60817 15.7499C2.90134 16.2855 3.13004 16.8262 3.48099 17.3406C3.8301 17.8524 4.29818 18.3339 5.06431 18.7405C5.70944 19.0829 6.56691 19.3727 7.74425 19.5821C5.51151 18.9923 4.46433 18.1525 3.73864 17.2436C3.34134 16.746 3.03917 16.2255 2.69436 15.7229C2.49871 15.4377 2.28822 15.1564 2.03687 14.8842ZM28.7086 15.4096C28.8958 15.3422 29.0732 15.3143 29.2248 15.3405C29.2272 15.3409 29.2295 15.3415 29.2317 15.3424C29.6887 15.5167 29.9756 15.952 30.1292 16.4524C30.2828 16.9525 30.3058 17.5247 30.2295 17.9882C30.2255 18.1979 30.1302 18.391 29.9792 18.5594C29.8275 18.7285 29.6184 18.8744 29.3836 18.9903C28.9145 19.2217 28.3346 19.3371 27.8859 19.272C27.8833 19.2716 27.8808 19.2709 27.8783 19.27C27.1871 19.0131 26.845 18.6246 26.7486 18.1839C26.6527 17.7459 26.802 17.2667 27.0698 16.8316C27.338 16.3959 27.7281 15.999 28.1234 15.7233C28.3212 15.5854 28.5211 15.4771 28.7086 15.4096ZM29.2085 15.4134C29.0751 15.3913 28.9128 15.4154 28.7339 15.4798C28.5539 15.5446 28.3598 15.6494 28.1661 15.7845C27.7785 16.0549 27.3957 16.4444 27.1333 16.8707C26.8705 17.2978 26.7315 17.7566 26.8215 18.168C26.9108 18.5759 27.2279 18.9477 27.9005 19.1986C28.3307 19.2599 28.8933 19.149 29.3505 18.9234C29.5795 18.8104 29.78 18.6697 29.9236 18.5096C30.067 18.3496 30.1522 18.1721 30.155 17.9842L30.1555 17.9786C30.2306 17.5252 30.2081 16.9635 30.0579 16.4743C29.9079 15.9858 29.6329 15.5769 29.2085 15.4134ZM34.7929 16.6344C35.0973 16.4777 35.4083 16.5926 35.6413 16.8201C35.8747 17.0478 36.0383 17.3949 36.0531 17.7238C36.0532 17.7264 36.0531 17.729 36.0527 17.7315C35.9611 18.2904 35.7277 18.6641 35.4255 18.8946C35.1239 19.1246 34.7574 19.209 34.4044 19.1967C34.0515 19.1844 33.7095 19.0755 33.454 18.9157C33.2004 18.7571 33.023 18.5421 33.0195 18.3143C33.0195 18.312 33.0196 18.3096 33.0201 18.3072C33.0861 17.935 33.3609 17.5783 33.7 17.2855C34.0391 16.9928 34.4478 16.7594 34.7929 16.6344ZM35.5892 16.8735C35.3688 16.6584 35.0911 16.5637 34.8251 16.7017C34.8237 16.7025 34.8221 16.7032 34.8206 16.7037C34.4838 16.8254 34.0819 17.0544 33.7487 17.342C33.4159 17.6294 33.157 17.9706 33.0942 18.3165C33.0988 18.5051 33.249 18.6994 33.4935 18.8524C33.7376 19.005 34.0668 19.1102 34.407 19.1221C34.7469 19.134 35.0952 19.0526 35.3803 18.8352C35.6641 18.6187 35.8889 18.2645 35.9783 17.7233C35.9633 17.4155 35.8089 17.0879 35.5892 16.8735ZM13.1364 15.0425C14.0883 14.6437 14.7516 14.6073 15.2517 14.7444C15.7513 14.8813 16.0819 15.1898 16.3693 15.4651C16.3772 15.4726 16.3813 15.4831 16.3808 15.494C16.3639 15.8288 16.1991 16.2026 15.9168 16.5678C15.9148 16.5704 15.9124 16.5728 15.9097 16.5748C15.4824 16.895 14.8544 17.1839 14.0919 17.3624C13.8034 17.5039 13.5599 17.6535 13.338 17.7833C13.1163 17.9131 12.9149 18.0239 12.7153 18.0827C12.5141 18.1419 12.3143 18.1484 12.0961 18.0703C11.8792 17.9926 11.6468 17.8321 11.3777 17.5628C11.3714 17.5565 11.3676 17.5482 11.3669 17.5393C11.3373 17.159 11.5028 16.7175 11.811 16.2821C12.1197 15.846 12.5743 15.4121 13.1303 15.0458L13.1333 15.044C13.1343 15.0434 13.1354 15.0429 13.1364 15.0425ZM15.232 14.8163C14.7537 14.6852 14.109 14.7164 13.1685 15.11C12.6204 15.4715 12.174 15.8985 11.8719 16.3253C11.5726 16.7481 11.4176 17.1668 11.4404 17.5198C11.7012 17.7791 11.9213 17.9284 12.1213 18C12.3225 18.0721 12.506 18.0665 12.6942 18.0111C12.8839 17.9552 13.0781 17.8489 13.3003 17.7189C13.5216 17.5894 13.7695 17.4371 14.0628 17.2936C14.0653 17.2924 14.068 17.2914 14.0707 17.2908C14.8249 17.1147 15.4428 16.8302 15.8609 16.518C16.1308 16.1676 16.2848 15.8162 16.3052 15.5071C16.0208 15.2351 15.7046 14.9458 15.232 14.8163ZM40.8367 16.1025C41.1313 15.9963 41.3773 16.0569 41.5341 16.2038C41.69 16.3498 41.7532 16.5773 41.6898 16.7943C41.6889 16.7973 41.6877 16.8001 41.6862 16.8027C41.2667 17.5226 40.5321 17.7691 39.9287 17.769C39.6272 17.769 39.3553 17.7075 39.1688 17.6103C39.0757 17.5617 39.0013 17.5029 38.9563 17.4358C38.9106 17.3675 38.8954 17.2905 38.9228 17.2115L38.9242 17.2081C38.9247 17.207 38.9253 17.2059 38.9259 17.2049C39.0669 16.9651 39.3851 16.7328 39.7434 16.5401C40.1028 16.3468 40.5095 16.1897 40.8367 16.1025ZM41.4831 16.2582C41.3493 16.1329 41.1333 16.0745 40.8606 16.1733C40.8596 16.1737 40.8586 16.174 40.8575 16.1743C40.5357 16.2598 40.1337 16.415 39.7787 16.6059C39.4238 16.7967 39.1231 17.0197 38.9923 17.2395C38.9752 17.2919 38.9844 17.3435 39.0184 17.3942C39.0539 17.4472 39.1165 17.4988 39.2033 17.5441C39.3766 17.6345 39.636 17.6944 39.9287 17.6944C40.5127 17.6945 41.2164 17.4566 41.6193 16.7691C41.673 16.5798 41.617 16.3836 41.4831 16.2582ZM32.3308 13.2968C32.4703 13.2464 32.6037 13.2241 32.7193 13.2409L32.7305 13.2426L32.734 13.2434C32.7352 13.2437 32.7364 13.2441 32.7375 13.2445C33.092 13.3798 33.3133 13.7165 33.431 14.1013C33.5487 14.4858 33.5654 14.9254 33.5052 15.2817C33.5023 15.4443 33.4284 15.5936 33.3123 15.7231C33.1956 15.8534 33.0348 15.9655 32.8543 16.0543C32.4941 16.2317 32.0477 16.3202 31.6995 16.2696C31.6969 16.2693 31.6944 16.2686 31.6919 16.2677C31.162 16.0703 30.8981 15.7711 30.8239 15.4303C30.7503 15.092 30.866 14.7232 31.0717 14.3894C31.2778 14.0549 31.5772 13.7503 31.8807 13.5385C32.0326 13.4325 32.1863 13.3491 32.3308 13.2968ZM32.7146 13.3157C32.6145 13.2996 32.492 13.3179 32.3562 13.367C32.2192 13.4166 32.0713 13.4965 31.9235 13.5997C31.6276 13.8062 31.3355 14.1034 31.1352 14.4285C30.9345 14.7543 30.829 15.1029 30.8968 15.4144C30.9639 15.7225 31.2028 16.0048 31.714 16.1963C32.0438 16.243 32.473 16.1589 32.8214 15.9873C32.9959 15.9014 33.1481 15.7945 33.2567 15.6733C33.3653 15.5522 33.4288 15.4186 33.4307 15.2778L33.4312 15.272C33.4901 14.9258 33.474 14.4967 33.3597 14.1232C33.2457 13.7504 33.0364 13.4402 32.7146 13.3157ZM43.4888 14.9589C43.6869 14.8896 43.8555 14.9359 43.9638 15.0415C44.0712 15.1461 44.1162 15.3064 44.0734 15.4572C44.0726 15.4598 44.0716 15.4624 44.0703 15.4648C43.8009 15.9615 43.3141 16.1241 42.9125 16.1168C42.712 16.1132 42.5296 16.0672 42.4032 15.9969C42.3401 15.9618 42.2887 15.9194 42.257 15.8709C42.2246 15.8214 42.2126 15.7651 42.2309 15.7073C42.2316 15.705 42.2326 15.7027 42.2338 15.7006C42.3256 15.5343 42.5363 15.3769 42.7708 15.2484C43.0068 15.1192 43.2742 15.0154 43.4888 14.9589ZM43.9117 15.0949C43.825 15.0105 43.6861 14.9683 43.5116 15.03C43.5106 15.0303 43.5096 15.0306 43.5086 15.0309C43.2998 15.0857 43.0376 15.1874 42.8067 15.3139C42.5757 15.4404 42.383 15.588 42.3011 15.7333C42.2921 15.765 42.2979 15.7971 42.3194 15.83C42.3423 15.865 42.3827 15.9001 42.4395 15.9317C42.5528 15.9948 42.7225 16.0387 42.9138 16.0422C43.2949 16.0491 43.7497 15.8957 44.0027 15.4329C44.0361 15.3097 43.9987 15.1797 43.9117 15.0949ZM37.9206 13.5943C38.1551 13.4774 38.3918 13.5665 38.5678 13.738C38.7441 13.9098 38.8674 14.1703 38.8801 14.4165C38.8802 14.4192 38.8801 14.4218 38.8797 14.4245C38.8107 14.8435 38.6351 15.1247 38.407 15.2983C38.1794 15.4715 37.9033 15.5349 37.6379 15.5257C37.3727 15.5165 37.1155 15.4348 36.9233 15.3149C36.733 15.1962 36.5971 15.0337 36.5946 14.8593C36.5946 14.857 36.5948 14.8548 36.5951 14.8525C36.6425 14.5705 36.8487 14.3022 37.102 14.083C37.3556 13.8637 37.6619 13.6888 37.9206 13.5943ZM38.5157 13.7914C38.3524 13.6324 38.1484 13.563 37.9521 13.6621C37.9508 13.6627 37.9494 13.6633 37.948 13.6638C37.6975 13.755 37.3983 13.9254 37.1508 14.1395C36.9037 14.3533 36.7136 14.6059 36.6694 14.8614C36.6729 14.9965 36.7815 15.1385 36.9628 15.2516C37.1436 15.3644 37.3879 15.4423 37.6405 15.4511C37.8928 15.4598 38.1508 15.3995 38.3618 15.2389C38.5715 15.0792 38.7384 14.8176 38.8053 14.4163C38.7925 14.1911 38.6783 13.9499 38.5157 13.7914ZM11.6614 12.422C12.0176 12.2786 12.4149 12.2815 12.7988 12.3595C13.1791 12.4368 13.5488 12.5885 13.8572 12.7483C14.5347 12.7157 15.0823 12.7015 15.4761 12.7343C15.6739 12.7508 15.8354 12.7794 15.9561 12.8248C16.0764 12.8701 16.1624 12.9346 16.1978 13.0272C16.2012 13.0362 16.201 13.0463 16.1972 13.0552C15.9849 13.5498 15.5835 13.8121 15.107 13.9142C14.6319 14.016 14.0811 13.959 13.5622 13.8165C13.0431 13.6739 12.5526 13.4446 12.1973 13.198C12.0197 13.0748 11.8745 12.9463 11.7764 12.821C11.6791 12.6966 11.6242 12.57 11.6383 12.4522L11.6392 12.4472C11.6421 12.4359 11.6503 12.4265 11.6614 12.422ZM12.7839 12.4327C12.4165 12.358 12.0435 12.3553 11.7108 12.4828C11.7086 12.5672 11.7501 12.6663 11.8352 12.775C11.9271 12.8925 12.0659 13.016 12.2398 13.1367C12.5875 13.3779 13.0702 13.6039 13.582 13.7445C14.0942 13.8852 14.6321 13.9396 15.0914 13.8412C15.5444 13.7441 15.9197 13.4989 16.1222 13.0403C16.0945 12.9826 16.0334 12.9337 15.9298 12.8947C15.8187 12.8529 15.6651 12.825 15.4699 12.8087C15.0798 12.7761 14.5335 12.7904 13.8509 12.8234C13.8443 12.8237 13.8377 12.8222 13.8319 12.8192C13.5256 12.6597 13.1591 12.509 12.7839 12.4327ZM5.19061 11.6317C5.60716 11.3617 6.19767 11.2707 6.77427 11.4251C6.77493 11.4253 6.7756 11.4255 6.77626 11.4257C7.59663 11.6953 8.11365 12.185 8.20249 12.8256C8.20397 12.8363 8.20075 12.8471 8.19365 12.8552C7.61344 13.5197 6.8535 13.9725 5.86686 13.822C5.86545 13.8218 5.86405 13.8215 5.86267 13.8211C5.22036 13.6458 4.76698 13.2098 4.67255 12.723C4.67062 12.713 4.67283 12.7027 4.67866 12.6944C4.6845 12.6861 4.69348 12.6805 4.70351 12.679C5.15915 12.6087 5.64081 12.5388 6.19372 12.4756C6.00264 12.3322 5.83316 12.1985 5.67722 12.0747C5.50082 11.9346 5.34215 11.8075 5.18858 11.6929C5.1788 11.6856 5.17322 11.674 5.17362 11.6618C5.17402 11.6496 5.18036 11.6383 5.19061 11.6317ZM6.75401 11.4969C6.21696 11.3534 5.67082 11.4307 5.27687 11.6659C5.41801 11.7727 5.56421 11.8896 5.72364 12.0162C5.89973 12.156 6.09243 12.308 6.31383 12.4721C6.32616 12.4813 6.33163 12.497 6.32763 12.5118C6.32363 12.5266 6.31099 12.5375 6.29574 12.5392C5.72069 12.6031 5.22324 12.6746 4.75405 12.7467C4.85737 13.1829 5.27552 13.5829 5.8804 13.7485C6.82607 13.8919 7.55824 13.4639 8.12604 12.819C8.03601 12.2259 7.55166 11.7593 6.75401 11.4969ZM35.3842 10.7429C35.4922 10.7041 35.5963 10.6863 35.6876 10.6982L35.7057 10.701L35.7091 10.7017C35.7103 10.7021 35.7114 10.7024 35.7125 10.7028C35.9969 10.8114 36.174 11.0812 36.2681 11.3883C36.3621 11.6951 36.3758 12.0463 36.3282 12.3329C36.3262 12.4645 36.2668 12.5849 36.174 12.6889C36.0805 12.7936 35.9517 12.8834 35.8078 12.9545C35.5206 13.0964 35.1647 13.1675 34.8887 13.1273C34.8861 13.1269 34.8835 13.1263 34.881 13.1254C34.4559 12.9672 34.2423 12.7268 34.1819 12.4515C34.122 12.1789 34.2147 11.8825 34.3788 11.6155C34.5432 11.3478 34.7822 11.1044 35.0245 10.9354C35.1457 10.8509 35.2686 10.7844 35.3842 10.7429ZM35.6893 10.7739C35.6119 10.7611 35.5163 10.7747 35.4094 10.8131C35.3014 10.8519 35.1844 10.9149 35.0672 10.9966C34.8327 11.1602 34.601 11.3962 34.4424 11.6545C34.2833 11.9134 34.2007 12.1895 34.2548 12.4355C34.3081 12.6781 34.4968 12.9017 34.9034 13.054C35.1608 13.0903 35.4994 13.0236 35.7747 12.8876C35.9128 12.8194 36.0329 12.7348 36.1183 12.6392C36.2036 12.5436 36.2528 12.4389 36.2537 12.3291L36.2542 12.3232C36.3006 12.0467 36.2874 11.706 36.1967 11.4102C36.1063 11.1151 35.9412 10.8717 35.6893 10.7739ZM16.2322 11.1956C16.5317 10.9213 16.8743 10.8584 17.2114 10.9269C17.5467 10.995 17.8761 11.1927 18.1558 11.4384C18.4358 11.6842 18.6689 11.9805 18.8111 12.2498C18.8821 12.3844 18.9312 12.5136 18.9515 12.6275C18.9716 12.7406 18.9642 12.8438 18.9149 12.921C18.9079 12.9319 18.8958 12.9385 18.8829 12.9382C18.6074 12.9339 18.3553 12.8164 18.1382 12.6526C17.9243 12.4912 17.7424 12.2833 17.6022 12.0885C17.1674 11.9176 16.8192 11.7711 16.5825 11.6359C16.4634 11.5679 16.3701 11.5014 16.3081 11.4345C16.2459 11.3674 16.2114 11.2955 16.2203 11.2188L16.2209 11.2155C16.2225 11.2079 16.2264 11.2009 16.2322 11.1956ZM17.1965 11C16.8842 10.9366 16.5709 10.9928 16.2937 11.2407C16.2931 11.2838 16.3136 11.3307 16.3628 11.3838C16.4172 11.4425 16.5029 11.5045 16.6195 11.5711C16.8235 11.6876 17.1146 11.814 17.4791 11.9595L17.6397 12.0231L17.6446 12.0254C17.6492 12.0281 17.6533 12.0317 17.6564 12.0361C17.7946 12.2296 17.9739 12.4351 18.1832 12.593C18.3864 12.7463 18.6158 12.8532 18.8619 12.863C18.8884 12.8092 18.8947 12.7343 18.878 12.6406C18.8595 12.5367 18.8139 12.415 18.7451 12.2847C18.6075 12.0241 18.3803 11.7349 18.1066 11.4945C17.8326 11.2539 17.5147 11.0646 17.1965 11ZM40.156 10.951C40.3441 10.7852 40.5858 10.767 40.795 10.8337C41.0037 10.9001 41.1868 11.053 41.2577 11.2385C41.2589 11.2415 41.2596 11.2446 41.26 11.2478C41.296 11.5862 41.1963 11.8571 41.0234 12.0644C40.8511 12.2707 40.6076 12.4124 40.3567 12.497C40.1059 12.5815 39.8448 12.61 39.6348 12.5875C39.5299 12.5762 39.436 12.552 39.3621 12.5143C39.2884 12.4766 39.2314 12.4238 39.2072 12.354C39.2062 12.3511 39.2056 12.3481 39.2053 12.345C39.1855 12.1165 39.3184 11.8445 39.5037 11.5955C39.69 11.3451 39.9356 11.1095 40.156 10.951ZM40.7724 10.9048C40.5815 10.844 40.3682 10.8625 40.204 11.0081C40.2031 11.009 40.2021 11.0098 40.201 11.0105C39.9864 11.1647 39.7457 11.3954 39.5636 11.64C39.3816 11.8847 39.2643 12.1351 39.2794 12.3338C39.296 12.3775 39.3347 12.4164 39.3961 12.4478C39.4594 12.4801 39.5437 12.5026 39.6428 12.5132C39.8409 12.5345 40.0911 12.5077 40.3329 12.4262C40.5746 12.3447 40.805 12.2095 40.9661 12.0165C41.1256 11.8254 41.2185 11.576 41.1862 11.2606C41.1237 11.1027 40.9625 10.9654 40.7724 10.9048ZM37.8422 8.57203C37.9399 8.53765 38.0355 8.52552 38.1197 8.54576C38.1221 8.54634 38.1245 8.54717 38.1267 8.54822C38.3751 8.66373 38.5381 8.92547 38.6319 9.21749C38.7257 9.50955 38.7529 9.83952 38.7239 10.1053C38.7316 10.3543 38.5411 10.5508 38.303 10.6712C38.0626 10.7926 37.7602 10.8441 37.5205 10.7946C37.5178 10.794 37.5151 10.7931 37.5126 10.792C37.1429 10.6238 36.9515 10.3886 36.8882 10.129C36.8253 9.87113 36.8908 9.59666 37.0192 9.35193C37.1477 9.10697 37.3412 8.8879 37.5413 8.73883C37.6414 8.66426 37.7441 8.60652 37.8422 8.57203ZM38.0986 8.61752C38.0338 8.60293 37.9549 8.61149 37.8669 8.64243C37.7777 8.67383 37.6816 8.72743 37.5859 8.79869C37.3945 8.94129 37.2084 9.15185 37.0853 9.38662C36.962 9.62163 36.9036 9.87705 36.9607 10.1114C37.0172 10.3431 37.1886 10.5616 37.5397 10.7223C37.7596 10.7663 38.0427 10.719 38.2693 10.6045C38.4986 10.4887 38.6568 10.3118 38.6492 10.1053C38.6491 10.1035 38.6492 10.1017 38.6494 10.0999C38.6778 9.84367 38.6516 9.52303 38.5608 9.2403C38.4701 8.95798 38.3175 8.72104 38.0986 8.61752ZM34.2423 8.38461C34.3235 8.37088 34.4005 8.3733 34.4652 8.39867L34.478 8.40406L34.4813 8.40582C34.4825 8.40647 34.4835 8.40716 34.4846 8.40792C34.672 8.54485 34.7603 8.79247 34.7864 9.05358C34.8126 9.31521 34.7773 9.59901 34.7086 9.82112C34.6687 10.0335 34.4759 10.1714 34.2586 10.237C34.0394 10.3032 33.7816 10.3007 33.5933 10.2204C33.5908 10.2194 33.5885 10.218 33.5862 10.2164C33.3104 10.0188 33.1932 9.79025 33.1864 9.5602C33.1796 9.33212 33.2815 9.1096 33.4296 8.92196C33.5779 8.73406 33.7751 8.57765 33.9655 8.48128C34.0608 8.43307 34.1554 8.39932 34.2423 8.38461ZM34.4437 8.47057C34.3952 8.4498 34.3311 8.4453 34.2548 8.4582C34.1771 8.47136 34.0896 8.50209 33.9992 8.54785C33.8183 8.63942 33.6297 8.78897 33.4882 8.96818C33.3466 9.14766 33.2549 9.35344 33.261 9.55798C33.267 9.75966 33.3683 9.96715 33.6263 10.1533C33.7951 10.2239 34.0324 10.2273 34.237 10.1656C34.4442 10.103 34.6042 9.97843 34.6356 9.80535L34.6367 9.80096C34.7031 9.58746 34.7374 9.3128 34.7122 9.06103C34.687 8.8096 34.6036 8.58947 34.4437 8.47057ZM42.7176 8.51905C42.8739 8.39341 43.0637 8.40715 43.2212 8.49036C43.3734 8.57081 43.5016 8.71871 43.5513 8.88149L43.5559 8.89729L43.5568 8.90158C43.557 8.90301 43.5571 8.90445 43.5572 8.9059C43.5667 9.20455 43.4769 9.43002 43.3327 9.592C43.1891 9.75332 42.994 9.84905 42.7967 9.89354C42.5995 9.938 42.3975 9.93193 42.2374 9.88699C42.0803 9.8429 41.9505 9.75697 41.9222 9.63117C41.9217 9.62878 41.9214 9.62634 41.9213 9.62389C41.9166 9.4213 42.0323 9.19972 42.187 9.0044C42.3422 8.80844 42.5419 8.63237 42.7176 8.51905ZM43.1863 8.55637C43.0465 8.48253 42.8899 8.47532 42.763 8.57835C42.7619 8.57921 42.7608 8.58 42.7597 8.58074C42.5904 8.68962 42.3961 8.86064 42.2455 9.05072C42.095 9.24066 41.9934 9.44324 41.9959 9.61827C42.0165 9.70062 42.1094 9.77353 42.2576 9.81513C42.4049 9.85646 42.5942 9.86266 42.7802 9.82072C42.9661 9.77881 43.146 9.68946 43.2769 9.54235C43.4066 9.39665 43.4906 9.19171 43.4826 8.91275C43.4415 8.76705 43.3256 8.62995 43.1863 8.55637ZM36.2419 7.45479C36.3043 7.44446 36.3644 7.44642 36.4155 7.4666L36.4256 7.47089L36.4292 7.47275C36.4304 7.47343 36.4315 7.47418 36.4326 7.47498C36.5745 7.58108 36.64 7.771 36.6593 7.9681C36.6787 8.16588 36.6526 8.37965 36.6024 8.54606C36.5712 8.71118 36.4217 8.81726 36.2562 8.86756C36.0889 8.91841 35.8916 8.91705 35.7464 8.85532C35.7438 8.85423 35.7414 8.85286 35.7391 8.85123C35.5312 8.70084 35.4421 8.52605 35.4375 8.34933C35.4329 8.17456 35.511 8.00479 35.6234 7.86239C35.736 7.71973 35.8855 7.60107 36.0303 7.52805C36.1027 7.49153 36.1751 7.46588 36.2419 7.45479ZM36.3911 7.53726C36.3564 7.52269 36.3101 7.51918 36.2541 7.52845C36.1965 7.538 36.1314 7.56065 36.0639 7.59473C35.9286 7.66291 35.7877 7.77463 35.682 7.90861C35.5761 8.04284 35.5081 8.19599 35.5121 8.34736C35.516 8.49586 35.5893 8.64949 35.7793 8.78815C35.9051 8.84017 36.0819 8.84253 36.2345 8.79613C36.3898 8.74895 36.5066 8.65619 36.5294 8.53033L36.5304 8.52617C36.5783 8.36822 36.6035 8.16346 36.585 7.97538C36.5666 7.7877 36.5058 7.62519 36.3911 7.53726ZM41.1721 6.15237C41.2587 6.1383 41.3406 6.14165 41.4092 6.16936L41.4228 6.17521L41.426 6.17694C41.4271 6.17757 41.4281 6.17824 41.4291 6.17897C41.6269 6.32411 41.7202 6.5871 41.7479 6.86503C41.7756 7.14349 41.7384 7.44564 41.6659 7.68205C41.6259 7.90897 41.4217 8.05613 41.1896 8.12642C40.9555 8.19732 40.6794 8.1949 40.4767 8.11083C40.4741 8.10972 40.4715 8.1083 40.4692 8.1066C40.1759 7.89442 40.0517 7.64992 40.0448 7.40445C40.038 7.1609 40.1467 6.92335 40.3048 6.7231C40.4631 6.52261 40.6736 6.35603 40.8768 6.25396C40.9785 6.2029 41.0795 6.16743 41.1721 6.15237ZM41.3879 6.24142C41.3354 6.21813 41.2661 6.2127 41.1841 6.22602C41.1008 6.23957 41.0071 6.27206 40.9103 6.32066C40.7167 6.41791 40.5149 6.57757 40.3634 6.76936C40.2118 6.9614 40.1132 7.18222 40.1194 7.40232C40.1255 7.61953 40.2339 7.84293 40.5093 8.04346C40.6928 8.11812 40.9486 8.12141 41.1679 8.05499C41.3899 7.98777 41.561 7.85404 41.5928 7.66689L41.5939 7.66213C41.6641 7.43423 41.7004 7.14111 41.6737 6.87242C41.6469 6.60395 41.5583 6.36843 41.3879 6.24142ZM46.5598 5.90848C46.7353 5.8935 46.8535 5.99852 46.9086 6.13783C46.9632 6.27609 46.9585 6.45238 46.8902 6.59524C46.8892 6.59738 46.888 6.59943 46.8866 6.60133C46.7251 6.82019 46.541 6.93869 46.3569 6.98525C46.1732 7.0317 45.9927 7.00572 45.8393 6.94115C45.6862 6.87673 45.5583 6.77317 45.4793 6.66158C45.4015 6.55155 45.3657 6.42458 45.4178 6.32007L45.4195 6.31697C45.4201 6.31599 45.4208 6.31504 45.4215 6.31411C45.5334 6.16716 45.7323 6.06333 45.9424 5.99767C46.1528 5.93194 46.3809 5.90245 46.5598 5.90848ZM46.8392 6.16527C46.7929 6.04822 46.7002 5.97052 46.564 5.983C46.5625 5.98315 46.5609 5.98319 46.5593 5.98314C46.3891 5.97711 46.1684 6.0053 45.9647 6.06893C45.7615 6.13242 45.5816 6.22923 45.4831 6.35645C45.4512 6.42441 45.47 6.51914 45.5403 6.61849C45.6105 6.71779 45.727 6.81292 45.8682 6.87238C46.0092 6.9317 46.1731 6.95476 46.3386 6.91289C46.503 6.87132 46.6722 6.76491 46.8242 6.55999C46.8822 6.4362 46.8857 6.28308 46.8392 6.16527ZM45.2908 3.88338C45.3577 3.87865 45.4207 3.88669 45.4719 3.91314L45.4819 3.91869L45.4854 3.92099C45.4865 3.92182 45.4876 3.92269 45.4886 3.92365C45.6256 4.05172 45.6723 4.26148 45.6687 4.475C45.6651 4.6892 45.6108 4.91626 45.5352 5.0909C45.4834 5.26315 45.3154 5.36046 45.1351 5.39644C44.9531 5.43275 44.7456 5.40989 44.5989 5.32886C44.5964 5.32747 44.594 5.32578 44.5919 5.32384C44.3895 5.14038 44.3166 4.94403 44.3329 4.75517C44.3491 4.5683 44.452 4.39536 44.5881 4.25492C44.7244 4.11426 44.8969 4.00306 45.0587 3.93998C45.1396 3.90842 45.219 3.88845 45.2908 3.88338ZM45.4407 3.98118C45.4056 3.962 45.3568 3.95354 45.296 3.95783C45.2336 3.96224 45.1617 3.97991 45.0858 4.00951C44.9338 4.06875 44.7704 4.17399 44.6417 4.30687C44.5127 4.43998 44.4215 4.59769 44.4073 4.76158C44.3934 4.92253 44.4533 5.09595 44.6387 5.26551C44.7671 5.3348 44.9539 5.35649 45.1205 5.32324C45.2896 5.2895 45.4248 5.20247 45.4644 5.06752L45.466 5.06313C45.5384 4.89664 45.5906 4.67833 45.5941 4.47377C45.5975 4.26963 45.5523 4.08803 45.4407 3.98118ZM54.2892 0.275649C53.7921 0.331848 53.3011 0.404012 52.815 0.491834C49.1869 1.14725 45.8285 2.67078 42.2492 4.87392C45.8618 2.73869 49.5048 1.16087 53.3307 0.438029C53.6489 0.377904 53.9684 0.323769 54.2892 0.275649ZM50.049 3.85661C50.1894 3.8455 50.2837 3.93116 50.3274 4.0425C50.3707 4.1528 50.3673 4.29298 50.314 4.40706C50.3129 4.40931 50.3117 4.41145 50.3102 4.41345C50.1825 4.586 50.0368 4.68005 49.8908 4.71716C49.7452 4.75416 49.6024 4.73371 49.4813 4.68274C49.3606 4.63191 49.2597 4.55002 49.1974 4.46133C49.1362 4.37413 49.1068 4.27137 49.1498 4.18552L49.1513 4.18276C49.1518 4.18186 49.1524 4.18099 49.153 4.18014C49.2403 4.06139 49.3976 3.98013 49.5625 3.92897C49.728 3.87765 49.9078 3.85454 50.049 3.85661ZM50.2579 4.0698C50.2228 3.9803 50.1537 3.92251 50.0533 3.93113C50.052 3.93124 50.0507 3.93128 50.0495 3.93126C49.9158 3.92912 49.7431 3.9511 49.5846 4.00027C49.4265 4.04933 49.2889 4.12346 49.2153 4.22147C49.1921 4.27111 49.2048 4.34195 49.2585 4.41844C49.3121 4.49474 49.4015 4.5681 49.5103 4.61394C49.6188 4.65963 49.7449 4.67723 49.8724 4.64483C49.9987 4.61273 50.1295 4.53077 50.2478 4.37218C50.2911 4.27705 50.2933 4.15986 50.2579 4.0698ZM71.9082 3.75671C71.9113 3.7583 71.9143 3.75988 71.9174 3.76147C71.9188 3.76221 71.9202 3.76308 71.9215 3.764L71.9193 3.74694C71.9126 3.74415 71.906 3.7414 71.8993 3.73862L71.9082 3.75671ZM49.0922 2.2548C49.1492 2.2423 49.2044 2.23736 49.253 2.24199C49.2983 2.2463 49.3408 2.2592 49.3733 2.28486L49.3796 2.29014L49.3825 2.293C49.3834 2.29401 49.3843 2.29506 49.3851 2.29616C49.4605 2.3995 49.4645 2.54737 49.4361 2.68903C49.4076 2.83135 49.3445 2.97671 49.2726 3.08525C49.2162 3.20018 49.0904 3.24898 48.967 3.25431C48.8422 3.2597 48.7071 3.22182 48.6203 3.14873C48.6182 3.14696 48.6163 3.14497 48.6146 3.14278C48.5038 2.99701 48.4796 2.85512 48.5143 2.72763C48.5485 2.60208 48.6382 2.49609 48.7447 2.41621C48.8514 2.33616 48.9781 2.27978 49.0922 2.2548ZM49.246 2.31632C49.207 2.31261 49.1599 2.31636 49.1082 2.32769C49.0046 2.35036 48.8877 2.40221 48.7895 2.4759C48.691 2.54977 48.6147 2.64309 48.5863 2.74725C48.5587 2.84861 48.5751 2.96573 48.6715 3.09423C48.7413 3.15115 48.855 3.18442 48.9638 3.17972C49.0747 3.17493 49.1676 3.13184 49.2064 3.05066L49.209 3.04604C49.2765 2.94503 49.3362 2.80766 49.3629 2.67436C49.3896 2.54157 49.3817 2.42175 49.3274 2.34388C49.3101 2.33002 49.2832 2.31986 49.246 2.31632ZM57.87 0.0748946C61.3757 0.212372 65.2602 1.09197 69.8584 2.84296C65.564 0.900797 61.6103 0.0603304 57.87 0.0748946Z" fill="#33A457"/>
</svg>
