<svg width="386" height="138" viewBox="0 0 386 138" fill="none" xmlns="http://www.w3.org/2000/svg">
<path d="M81.9208 70.0917C79.1675 63.0939 72.6514 62.4055 69.2558 62.4055C66.7778 62.4055 63.1527 62.6732 60.2158 64.7764C58.1509 66.3059 56.1779 68.9447 56.1779 72.6539C56.1779 76.5162 58.2886 78.7341 59.9864 79.8813C61.5007 80.8755 64.0705 81.8315 65.7683 82.2139L69.2558 82.9402C71.0454 83.3226 72.9726 84.0113 72.9726 85.7321C72.9726 86.191 72.7891 86.6497 72.2843 87.0704C71.4583 87.7204 70.2194 87.7201 69.3935 87.7201C68.338 87.7201 67.0989 87.7203 65.8141 86.9555C65.0799 86.5349 63.9328 85.5405 63.5198 83.8962L54.5259 85.3876C55.0306 87.4525 56.132 89.4413 57.6921 90.9709C60.0324 93.227 63.7951 94.7949 68.7509 94.7949C75.6341 94.7949 82.7925 91.5826 82.7925 84.2024C82.7925 81.3344 81.8749 78.8488 79.3511 76.975C77.6073 75.6367 75.2671 74.8337 72.2386 74.2219L68.8429 73.5334C67.7875 73.3039 65.7224 73.0364 65.7224 71.2774C65.7224 70.9332 65.8142 70.2831 66.4566 69.8243C66.8696 69.5566 67.558 69.2888 68.8429 69.2888C70.4948 69.2888 71.9172 69.671 72.7432 70.5123C73.2479 71.0094 73.7068 71.8126 73.9363 72.5391L81.9208 70.0917Z" fill="white"/>
<path d="M83.7561 62.8262V70.2066H90.2721V94.3361H99.9085V70.2066H106.424V62.8262H83.7561Z" fill="white"/>
<path d="M109.224 62.8262V94.3361H118.86V82.5962H121.981L126.569 94.3361H137.307L131.25 80.7991C135.104 79.4225 136.665 75.828 136.665 72.31C136.665 69.5567 135.701 67.3003 134.279 65.809C131.525 62.9792 127.074 62.8262 125.101 62.8262H109.224ZM118.86 69.7478H123.219C124.045 69.7478 125.33 69.8242 126.202 70.6655C126.615 71.0096 127.028 71.6981 127.028 72.7689C127.028 73.5336 126.799 74.26 126.11 74.91C125.238 75.7131 124.183 75.7895 123.265 75.7895H118.86V69.7478Z" fill="white"/>
<path d="M155.57 62.4055C151.394 62.4055 148.274 63.6677 145.98 65.5414C143.41 67.6446 140.565 71.5452 140.565 78.5813C140.565 83.7819 142.079 87.9496 145.383 91.0853C148.136 93.6855 151.394 94.7949 155.57 94.7949C160.985 94.7949 164.472 92.6917 166.491 90.512C169.107 87.7205 170.575 83.3612 170.575 78.5813C170.575 72.7689 168.511 68.4859 165.757 66.0003C164.564 64.9678 161.352 62.4055 155.57 62.4055ZM155.57 69.2888C156.947 69.2888 158.323 69.9773 159.241 71.8511C159.471 72.3099 160.296 74.1453 160.296 78.3899C160.296 82.711 159.471 84.623 159.241 85.1201C158.323 87.0703 156.947 87.7201 155.57 87.7201C154.194 87.7201 152.817 87.0703 151.899 85.1201C151.67 84.623 150.844 82.711 150.844 78.3899C150.844 74.1453 151.67 72.3099 151.899 71.8511C152.817 69.9773 154.194 69.2888 155.57 69.2888Z" fill="white"/>
<path d="M198.613 62.8262H190.17L184.709 73.2277L179.248 62.8262H168.602L179.065 81.0283V94.3361H188.701V81.0283L198.613 62.8262Z" fill="white"/>
<path d="M209.763 78.0842H198.108V85.3345H209.763V78.0842Z" fill="white"/>
<path d="M240.141 76.7071H225.962V83.5139H231.147V83.8201C231.147 84.7761 230.505 86.0379 229.908 86.6115C229.312 87.2233 228.21 87.7201 226.925 87.7201C225.319 87.7201 224.035 87.032 223.117 85.4641C222.474 84.4317 221.878 82.4433 221.878 78.3516C221.878 74.5659 222.383 72.9598 222.75 72.0803C223.667 69.9006 225.227 69.2888 226.65 69.2888C227.659 69.2888 228.715 69.5947 229.541 70.6654C230.229 71.5067 230.734 72.96 230.78 74.2602L240.141 73.3042C239.682 70.0921 238.168 67.3387 236.149 65.5414C233.946 63.5912 230.826 62.4055 226.512 62.4055C223.667 62.4055 219.537 62.9791 216.188 66.2295C213.756 68.5621 211.599 72.6154 211.599 79.0779C211.599 83.3608 212.654 87.9115 216.233 91.2766C219.033 93.9534 222.153 94.7949 225.594 94.7949C228.623 94.7949 230.367 94.068 231.285 93.4944C232.294 92.9208 233.396 91.8504 234.13 91.0092L235.415 94.336H240.141V76.7071Z" fill="white"/>
<path d="M245.372 62.8262V94.3361H255.009V82.5962H258.129L262.718 94.3361H273.455L267.398 80.7991C271.253 79.4225 272.813 75.828 272.813 72.31C272.813 69.5567 271.849 67.3003 270.427 65.809C267.673 62.9792 263.222 62.8262 261.249 62.8262H245.372ZM255.009 69.7478H259.368C260.194 69.7478 261.479 69.8242 262.35 70.6655C262.763 71.0096 263.176 71.6981 263.176 72.7689C263.176 73.5336 262.947 74.26 262.259 74.91C261.387 75.7131 260.332 75.7895 259.414 75.7895H255.009V69.7478Z" fill="white"/>
<path d="M291.719 62.4055C287.543 62.4055 284.423 63.6677 282.128 65.5414C279.558 67.6446 276.713 71.5452 276.713 78.5813C276.713 83.7819 278.228 87.9496 281.532 91.0853C284.285 93.6855 287.543 94.7949 291.719 94.7949C297.133 94.7949 300.621 92.6917 302.64 90.512C305.255 87.7205 306.724 83.3612 306.724 78.5813C306.724 72.7689 304.659 68.4859 301.906 66.0003C300.713 64.9678 297.5 62.4055 291.719 62.4055ZM291.719 69.2888C293.095 69.2888 294.472 69.9773 295.39 71.8511C295.619 72.3099 296.445 74.1453 296.445 78.3899C296.445 82.711 295.619 84.623 295.39 85.1201C294.472 87.0703 293.095 87.7201 291.719 87.7201C290.342 87.7201 288.965 87.0703 288.048 85.1201C287.818 84.623 286.992 82.711 286.992 78.3899C286.992 74.1453 287.818 72.3099 288.048 71.8511C288.965 69.9773 290.342 69.2888 291.719 69.2888Z" fill="white"/>
<path d="M310.9 62.8262V83.5905C310.9 86.5732 311.221 89.8619 314.479 92.271C316.314 93.6094 319.343 94.7949 323.978 94.7949C326.685 94.7949 330.172 94.374 332.926 92.1179C336.321 89.3264 336.321 85.6554 336.321 83.0934V62.8262H328.429V82.9785C328.429 84.4316 328.383 85.6939 327.465 86.6499C326.593 87.5676 325.4 87.7202 324.482 87.7202C323.565 87.7202 322.371 87.5676 321.5 86.6499C320.582 85.6939 320.536 84.4316 320.536 82.9785V62.8262H310.9Z" fill="white"/>
<path d="M341.92 62.8262V94.3361H351.556V82.9403H356.099C359.449 82.9403 364.267 82.6345 367.066 78.1987C368.397 76.0572 368.534 73.6867 368.534 72.7689C368.534 67.989 365.873 65.5797 363.854 64.4708C360.963 62.7882 357.521 62.8262 354.585 62.8262H341.92ZM351.556 75.8661V69.7478H355.135C355.869 69.7478 357.2 69.7861 358.118 70.7038C358.623 71.2392 358.898 72.0424 358.898 72.8455C358.898 73.725 358.485 74.4896 357.98 75.0249C357.063 75.828 355.686 75.8661 355.135 75.8661H351.556Z" fill="white"/>
<path fill-rule="evenodd" clip-rule="evenodd" d="M0 67.8249L92.8459 19.5532L337.502 49.3388L93.9068 0L0 67.8249Z" fill="white"/>
<path fill-rule="evenodd" clip-rule="evenodd" d="M48.6285 21.1782L13.7434 138L385.68 116.449L35.6125 114.33L48.6285 21.1782Z" fill="white"/>
</svg>
