<svg width="74" height="22" viewBox="0 0 74 22" fill="none" xmlns="http://www.w3.org/2000/svg">
<path d="M33.9374 14.4658H23.3967V17.0349H33.9374V14.4658Z" fill="#7B7B7B"/>
<path d="M33.9374 9.57471H23.3967V12.1445H33.9374V9.57471Z" fill="#7B7B7B"/>
<path d="M33.9374 4.67725H23.3967V7.24596H33.9374V4.67725Z" fill="#7B7B7B"/>
<path d="M55.7071 4.51465H53.1794V17.1964H55.7071V4.51465Z" fill="#7B7B7B"/>
<path d="M55.7071 0.0722656H53.1794V2.64084H55.7071V0.0722656Z" fill="#7B7B7B"/>
<path d="M11.1856 4.35156L0 4.35156V6.92071H4.32982V17.0345H6.8575V6.92071H11.1856V4.35156Z" fill="#7B7B7B"/>
<path d="M67.2604 10.8563L73.5 4.51514H69.9245L65.4721 9.03909L61.0208 4.51514H57.4453L63.6849 10.8557L57.4453 17.1975H61.0208L65.4721 12.6724L69.9245 17.1975H73.5L67.2604 10.8563Z" fill="#7B7B7B"/>
<path d="M37.7039 4.35156V17.0339H40.231V6.92071H41.4959C44.9796 6.92071 47.8157 9.80154 47.8157 13.3428V17.0339H50.3422V13.3428C50.3422 8.38527 46.3733 4.35156 41.4959 4.35156H37.7039Z" fill="#7B7B7B"/>
<path d="M15.6049 13.245C16.6267 16.2674 15.6768 18.8219 13.0828 21.7275H15.9343C18.2508 20.0748 19.7313 16.1079 18.3597 12.0495L18.3503 12.0304L17.16 8.48242C16.1387 5.46008 17.0887 2.90553 19.6838 0H16.8312C14.5118 1.65268 13.0341 5.62013 14.4057 9.67799L15.5955 13.2259L15.6049 13.245Z" fill="#7B7B7B"/>
</svg>
